<?xml version="1.0" encoding="UTF-8"?>
<!DOCTYPE svg PUBLIC "-//W3C//DTD SVG 1.1//EN" "http://www.w3.org/Graphics/SVG/1.1/DTD/svg11.dtd">
<svg xmlns="http://www.w3.org/2000/svg" version="1.1" width="235px" height="120px" style="shape-rendering:geometricPrecision; text-rendering:geometricPrecision; image-rendering:optimizeQuality; fill-rule:evenodd; clip-rule:evenodd" xmlns:xlink="http://www.w3.org/1999/xlink">
<g><path style="opacity:1" fill="#6657a9" d="M 41.5,39.5 C 36.547,38.6708 31.547,38.3375 26.5,38.5C 25.5,38.5 24.5,38.5 23.5,38.5C 23.5,38.1667 23.5,37.8333 23.5,37.5C 29.8793,35.8432 35.8793,36.5099 41.5,39.5 Z"/></g>
<g><path style="opacity:1" fill="#7a58c7" d="M 26.5,38.5 C 31.547,38.3375 36.547,38.6708 41.5,39.5C 41.6107,40.1174 41.944,40.6174 42.5,41C 40.6803,41.2004 39.347,42.0337 38.5,43.5C 38.1667,43.5 37.8333,43.5 37.5,43.5C 35.2942,41.5392 32.6275,40.2059 29.5,39.5C 29.5,40.5 29.5,41.5 29.5,42.5C 29.1667,42.5 28.8333,42.5 28.5,42.5C 28.5,42.1667 28.5,41.8333 28.5,41.5C 27.8333,40.5 27.1667,39.5 26.5,38.5 Z"/></g>
<g><path style="opacity:0.871" fill="#7562a8" d="M 23.5,37.5 C 23.5,37.8333 23.5,38.1667 23.5,38.5C 21.8608,39.4725 20.5274,40.8058 19.5,42.5C 18.5,42.5 17.5,42.5 16.5,42.5C 18.5313,40.4776 20.8646,38.8109 23.5,37.5 Z"/></g>
<g><path style="opacity:1" fill="#7b5bc6" d="M 23.5,38.5 C 24.5,38.5 25.5,38.5 26.5,38.5C 27.1667,39.5 27.8333,40.5 28.5,41.5C 26.9397,41.4809 25.4397,41.1476 24,40.5C 22.699,40.6387 21.8656,41.3054 21.5,42.5C 20.8333,42.5 20.1667,42.5 19.5,42.5C 20.5274,40.8058 21.8608,39.4725 23.5,38.5 Z"/></g>
<g><path style="opacity:1" fill="#7a56c9" d="M 28.5,41.5 C 28.5,41.8333 28.5,42.1667 28.5,42.5C 26.1667,42.5 23.8333,42.5 21.5,42.5C 21.8656,41.3054 22.699,40.6387 24,40.5C 25.4397,41.1476 26.9397,41.4809 28.5,41.5 Z"/></g>
<g><path style="opacity:1" fill="#7959ce" d="M 37.5,43.5 C 37.1667,43.5 36.8333,43.5 36.5,43.5C 35.8333,43.5 35.1667,43.5 34.5,43.5C 34.1667,43.5 33.8333,43.5 33.5,43.5C 32.4324,42.5655 31.099,42.2322 29.5,42.5C 29.5,41.5 29.5,40.5 29.5,39.5C 32.6275,40.2059 35.2942,41.5392 37.5,43.5 Z"/></g>
<g><path style="opacity:1" fill="#765bc4" d="M 41.5,39.5 C 42.609,39.5569 43.609,39.8902 44.5,40.5C 45.075,42.4113 46.075,44.078 47.5,45.5C 46.5,45.5 45.5,45.5 44.5,45.5C 42.3146,45.2964 40.3146,44.6298 38.5,43.5C 39.347,42.0337 40.6803,41.2004 42.5,41C 41.944,40.6174 41.6107,40.1174 41.5,39.5 Z"/></g>
<g><path style="opacity:1" fill="#745ec9" d="M 21.5,42.5 C 23.8333,42.5 26.1667,42.5 28.5,42.5C 28.8333,42.5 29.1667,42.5 29.5,42.5C 31.099,42.2322 32.4324,42.5655 33.5,43.5C 30.8127,43.3359 28.146,43.5026 25.5,44C 24.944,44.3826 24.6107,44.8826 24.5,45.5C 23.8333,45.5 23.1667,45.5 22.5,45.5C 22.4431,44.391 22.1098,43.391 21.5,42.5 Z"/></g>
<g><path style="opacity:0.953" fill="#7d73be" d="M 44.5,40.5 C 47.2427,42.2393 49.2427,44.5726 50.5,47.5C 49.5,46.8333 48.5,46.1667 47.5,45.5C 46.075,44.078 45.075,42.4113 44.5,40.5 Z"/></g>
<g><path style="opacity:1" fill="#7b57cb" d="M 16.5,42.5 C 17.5,42.5 18.5,42.5 19.5,42.5C 20.1667,42.5 20.8333,42.5 21.5,42.5C 22.1098,43.391 22.4431,44.391 22.5,45.5C 18.8844,47.4436 16.8844,46.4436 16.5,42.5 Z"/></g>
<g><path style="opacity:0.341" fill="#647bb9" d="M 33.5,43.5 C 33.8333,43.5 34.1667,43.5 34.5,43.5C 34.5,43.8333 34.5,44.1667 34.5,44.5C 32.901,44.2322 31.5676,44.5655 30.5,45.5C 29.1667,45.5 27.8333,45.5 26.5,45.5C 26.1667,45.5 25.8333,45.5 25.5,45.5C 25.1667,45.5 24.8333,45.5 24.5,45.5C 24.6107,44.8826 24.944,44.3826 25.5,44C 28.146,43.5026 30.8127,43.3359 33.5,43.5 Z"/></g>
<g><path style="opacity:1" fill="#765bc6" d="M 36.5,43.5 C 36.8333,43.5 37.1667,43.5 37.5,43.5C 37.8333,43.5 38.1667,43.5 38.5,43.5C 40.3146,44.6298 42.3146,45.2964 44.5,45.5C 44.1667,46.1667 43.8333,46.8333 43.5,47.5C 42.8333,47.5 42.1667,47.5 41.5,47.5C 40.3282,45.461 38.6616,44.1276 36.5,43.5 Z"/></g>
<g><path style="opacity:1" fill="#79cddc" d="M 26.5,45.5 C 27.8333,45.5 29.1667,45.5 30.5,45.5C 32.5969,46.8786 32.9302,48.5453 31.5,50.5C 31.8333,47.5 30.5,46.1667 27.5,46.5C 27.5,47.8333 27.5,49.1667 27.5,50.5C 26.5489,49.0813 26.2155,47.4147 26.5,45.5 Z"/></g>
<g><path style="opacity:0.729" fill="#817dcf" d="M 34.5,44.5 C 34.5,44.1667 34.5,43.8333 34.5,43.5C 35.1667,43.5 35.8333,43.5 36.5,43.5C 38.6616,44.1276 40.3282,45.461 41.5,47.5C 39.2779,46.3124 36.9446,45.3124 34.5,44.5 Z"/></g>
<g><path style="opacity:0.949" fill="#68aab7" d="M 204.5,46.5 C 202.833,46.5 201.167,46.5 199.5,46.5C 199.5,47.8333 199.5,49.1667 199.5,50.5C 197.399,46.1693 198.733,44.3359 203.5,45C 204.056,45.3826 204.389,45.8826 204.5,46.5 Z"/></g>
<g><path style="opacity:1" fill="#7060b6" d="M 16.5,42.5 C 16.8844,46.4436 18.8844,47.4436 22.5,45.5C 23.1667,45.5 23.8333,45.5 24.5,45.5C 22.1918,47.4707 19.8585,49.4707 17.5,51.5C 17.5,50.1667 17.5,48.8333 17.5,47.5C 16.5,47.5 15.5,47.5 14.5,47.5C 13.391,47.5569 12.391,47.8902 11.5,48.5C 12.4194,45.9108 14.086,43.9108 16.5,42.5 Z"/></g>
<g><path style="opacity:1" fill="#7d55c4" d="M 44.5,45.5 C 45.5,45.5 46.5,45.5 47.5,45.5C 47.5,46.1667 47.5,46.8333 47.5,47.5C 46.1667,47.5 45.5,48.1667 45.5,49.5C 44.5,49.1667 43.8333,48.5 43.5,47.5C 43.8333,46.8333 44.1667,46.1667 44.5,45.5 Z"/></g>
<g><path style="opacity:1" fill="#7860c3" d="M 66.5,46.5 C 70.1667,46.5 73.8333,46.5 77.5,46.5C 77.5,46.8333 77.5,47.1667 77.5,47.5C 76.0813,48.4511 74.4147,48.7845 72.5,48.5C 70.7354,47.5386 68.7354,47.2053 66.5,47.5C 66.5,48.5 66.5,49.5 66.5,50.5C 65.596,49.791 65.2627,48.791 65.5,47.5C 65.5,46.8333 65.8333,46.5 66.5,46.5 Z"/></g>
<g><path style="opacity:0.982" fill="#755dcb" d="M 77.5,47.5 C 77.5,47.1667 77.5,46.8333 77.5,46.5C 80.8333,46.5 84.1667,46.5 87.5,46.5C 87.7373,47.791 87.404,48.791 86.5,49.5C 84.6776,49.1692 83.0109,48.5025 81.5,47.5C 80.1667,47.5 78.8333,47.5 77.5,47.5 Z"/></g>
<g><path style="opacity:1" fill="#765fbf" d="M 132.5,46.5 C 132.5,47.1667 132.5,47.8333 132.5,48.5C 130.692,49.9179 130.025,51.9179 130.5,54.5C 130.167,54.5 129.833,54.5 129.5,54.5C 129.5,51.8333 129.5,49.1667 129.5,46.5C 130.5,46.5 131.5,46.5 132.5,46.5 Z"/></g>
<g><path style="opacity:1" fill="#57b6c2" d="M 204.5,46.5 C 205.833,47.5 205.833,48.5 204.5,49.5C 203.817,47.8235 202.483,47.1568 200.5,47.5C 200.5,48.5 200.5,49.5 200.5,50.5C 201.5,50.5 202.5,50.5 203.5,50.5C 203.158,51.3382 202.492,51.6716 201.5,51.5C 201.167,51.5 200.833,51.5 200.5,51.5C 200.167,51.5 199.833,51.5 199.5,51.5C 199.5,51.1667 199.5,50.8333 199.5,50.5C 199.5,49.1667 199.5,47.8333 199.5,46.5C 201.167,46.5 202.833,46.5 204.5,46.5 Z"/></g>
<g><path style="opacity:0.353" fill="#6a61ab" d="M 66.5,46.5 C 73.9818,45.508 81.6484,45.1746 89.5,45.5C 89.5,47.5 89.5,49.5 89.5,51.5C 87.1667,51.5 84.8333,51.5 82.5,51.5C 83.8333,50.8333 85.1667,50.1667 86.5,49.5C 87.404,48.791 87.7373,47.791 87.5,46.5C 84.1667,46.5 80.8333,46.5 77.5,46.5C 73.8333,46.5 70.1667,46.5 66.5,46.5 Z"/></g>
<g><path style="opacity:1" fill="#7957c7" d="M 47.5,47.5 C 48.2625,48.2679 49.2625,48.7679 50.5,49C 49.944,49.3826 49.6107,49.8826 49.5,50.5C 48.609,51.1098 47.609,51.4431 46.5,51.5C 45.6618,51.1583 45.3284,50.4916 45.5,49.5C 45.5,48.1667 46.1667,47.5 47.5,47.5 Z"/></g>
<g><path style="opacity:1" fill="#775bc9" d="M 72.5,48.5 C 71.5,48.8333 70.8333,49.5 70.5,50.5C 69.1667,50.5 67.8333,50.5 66.5,50.5C 66.5,49.5 66.5,48.5 66.5,47.5C 68.7354,47.2053 70.7354,47.5386 72.5,48.5 Z"/></g>
<g><path style="opacity:1" fill="#7957c7" d="M 77.5,47.5 C 78.8333,47.5 80.1667,47.5 81.5,47.5C 81.5,48.8333 80.8333,49.5 79.5,49.5C 77.2646,49.2053 75.2646,49.5386 73.5,50.5C 72.5,50.5 71.5,50.5 70.5,50.5C 70.8333,49.5 71.5,48.8333 72.5,48.5C 74.4147,48.7845 76.0813,48.4511 77.5,47.5 Z"/></g>
<g><path style="opacity:1" fill="#755cc4" d="M 81.5,47.5 C 83.0109,48.5025 84.6776,49.1692 86.5,49.5C 85.1667,50.1667 83.8333,50.8333 82.5,51.5C 81.8333,51.5 81.1667,51.5 80.5,51.5C 80.1667,51.5 79.8333,51.5 79.5,51.5C 79.5,50.8333 79.5,50.1667 79.5,49.5C 80.8333,49.5 81.5,48.8333 81.5,47.5 Z"/></g>
<g><path style="opacity:1" fill="#77dddb" d="M 31.5,50.5 C 30.1667,50.5 28.8333,50.5 27.5,50.5C 27.5,49.1667 27.5,47.8333 27.5,46.5C 30.5,46.1667 31.8333,47.5 31.5,50.5 Z"/></g>
<g><path style="opacity:1" fill="#7756cf" d="M 79.5,49.5 C 79.5,50.1667 79.5,50.8333 79.5,51.5C 79.1667,51.5 78.8333,51.5 78.5,51.5C 77.1667,51.5 75.8333,51.5 74.5,51.5C 74.1667,51.5 73.8333,51.5 73.5,51.5C 73.5,51.1667 73.5,50.8333 73.5,50.5C 75.2646,49.5386 77.2646,49.2053 79.5,49.5 Z"/></g>
<g><path style="opacity:0.761" fill="#796ab4" d="M 134.5,46.5 C 133.833,46.5 133.167,46.5 132.5,46.5C 131.5,46.5 130.5,46.5 129.5,46.5C 129.5,49.1667 129.5,51.8333 129.5,54.5C 129.5,59.5 129.5,64.5 129.5,69.5C 129.167,69.5 128.833,69.5 128.5,69.5C 128.5,68.1667 128.5,66.8333 128.5,65.5C 128.5,58.8333 128.5,52.1667 128.5,45.5C 130.735,45.2053 132.735,45.5386 134.5,46.5 Z"/></g>
<g><path style="opacity:0.882" fill="#6766b4" d="M 193.5,47.5 C 193.167,47.5 192.833,47.5 192.5,47.5C 191.609,46.8902 190.609,46.5569 189.5,46.5C 188.833,47.8333 188.167,49.1667 187.5,50.5C 187.167,50.5 186.833,50.5 186.5,50.5C 186.178,47.4681 187.511,45.8014 190.5,45.5C 192.03,45.6399 193.03,46.3065 193.5,47.5 Z"/></g>
<g><path style="opacity:0.969" fill="#5dcbd6" d="M 204.5,49.5 C 204.5,50.1667 204.167,50.5 203.5,50.5C 202.5,50.5 201.5,50.5 200.5,50.5C 200.5,49.5 200.5,48.5 200.5,47.5C 202.483,47.1568 203.817,47.8235 204.5,49.5 Z"/></g>
<g><path style="opacity:1" fill="#7956ca" d="M 14.5,47.5 C 15.5,47.5 16.5,47.5 17.5,47.5C 17.5,48.8333 17.5,50.1667 17.5,51.5C 16.8333,51.8333 16.1667,52.1667 15.5,52.5C 14.325,52.719 13.325,52.3857 12.5,51.5C 13.1799,50.1401 13.8466,48.8068 14.5,47.5 Z"/></g>
<g><path style="opacity:1" fill="#86c0db" d="M 25.5,45.5 C 25.8333,45.5 26.1667,45.5 26.5,45.5C 26.2155,47.4147 26.5489,49.0813 27.5,50.5C 28.8333,50.5 30.1667,50.5 31.5,50.5C 31.5,50.8333 31.5,51.1667 31.5,51.5C 29.8212,51.2852 28.8212,51.9519 28.5,53.5C 28.1667,53.5 27.8333,53.5 27.5,53.5C 27.5,53.1667 27.5,52.8333 27.5,52.5C 27.5,51.8333 27.1667,51.5 26.5,51.5C 26.1667,51.5 25.8333,51.5 25.5,51.5C 24.1667,49.5 24.1667,47.5 25.5,45.5 Z"/></g>
<g><path style="opacity:0.514" fill="#5d5196" d="M 65.5,47.5 C 65.2627,48.791 65.596,49.791 66.5,50.5C 67.8333,50.5 69.1667,50.5 70.5,50.5C 71.5,50.5 72.5,50.5 73.5,50.5C 73.5,50.8333 73.5,51.1667 73.5,51.5C 70.5,51.5 67.5,51.5 64.5,51.5C 64.2322,49.901 64.5655,48.5676 65.5,47.5 Z"/></g>
<g><path style="opacity:1" fill="#7956c9" d="M 189.5,46.5 C 190.609,46.5569 191.609,46.8902 192.5,47.5C 192.5,48.8333 192.5,50.1667 192.5,51.5C 190.259,50.7002 189.259,49.0336 189.5,46.5 Z"/></g>
<g><path style="opacity:0.549" fill="#6f66b5" d="M 102.5,52.5 C 100.833,52.5 99.1667,52.5 97.5,52.5C 94.7282,52.7587 92.3949,53.7587 90.5,55.5C 90.1667,55.5 89.8333,55.5 89.5,55.5C 89.5,55.1667 89.5,54.8333 89.5,54.5C 90.0577,53.2101 91.0577,52.3768 92.5,52C 96.0267,51.1925 99.3601,51.3592 102.5,52.5 Z"/></g>
<g><path style="opacity:0.612" fill="#5e75bb" d="M 31.5,51.5 C 32.4345,52.5676 32.7678,53.901 32.5,55.5C 32.1667,55.5 31.8333,55.5 31.5,55.5C 31.1788,53.9519 30.1788,53.2852 28.5,53.5C 28.8212,51.9519 29.8212,51.2852 31.5,51.5 Z"/></g>
<g><path style="opacity:1" fill="#765dcc" d="M 47.5,45.5 C 48.5,46.1667 49.5,46.8333 50.5,47.5C 51.1667,47.5 51.5,47.8333 51.5,48.5C 51.9926,50.8056 52.3259,53.139 52.5,55.5C 51.6043,54.4937 50.9377,54.4937 50.5,55.5C 49.5489,54.0813 49.2155,52.4147 49.5,50.5C 49.6107,49.8826 49.944,49.3826 50.5,49C 49.2625,48.7679 48.2625,48.2679 47.5,47.5C 47.5,46.8333 47.5,46.1667 47.5,45.5 Z"/></g>
<g><path style="opacity:0.937" fill="#7468bf" d="M 97.5,53.5 C 97.5,53.1667 97.5,52.8333 97.5,52.5C 99.1667,52.5 100.833,52.5 102.5,52.5C 104.404,52.7376 105.738,53.7376 106.5,55.5C 106.167,55.5 105.833,55.5 105.5,55.5C 105.167,55.5 104.833,55.5 104.5,55.5C 104.5,54.8333 104.167,54.5 103.5,54.5C 101.735,53.5386 99.7354,53.2053 97.5,53.5 Z"/></g>
<g><path style="opacity:1" fill="#786dc0" d="M 112.5,52.5 C 116.408,51.2015 120.408,51.3682 124.5,53C 125.883,54.2708 126.883,55.7708 127.5,57.5C 126.833,57.5 126.167,57.5 125.5,57.5C 124.056,54.1102 121.39,52.7768 117.5,53.5C 115.883,52.962 114.216,52.6287 112.5,52.5 Z"/></g>
<g><path style="opacity:0.988" fill="#7f83c4" d="M 145.5,51.5 C 151.351,50.756 152.017,52.0894 147.5,55.5C 147.473,53.8007 146.806,52.4674 145.5,51.5 Z"/></g>
<g><path style="opacity:1" fill="#7662cc" d="M 158.5,51.5 C 159.5,51.5 160.5,51.5 161.5,51.5C 162.167,52.1667 162.833,52.8333 163.5,53.5C 163.062,54.5063 162.396,54.5063 161.5,53.5C 159.5,53.8333 157.5,54.1667 155.5,54.5C 156.694,53.7281 157.694,52.7281 158.5,51.5 Z"/></g>
<g><path style="opacity:0.937" fill="#656abf" d="M 186.5,50.5 C 186.833,50.5 187.167,50.5 187.5,50.5C 187.5,51.5 187.5,52.5 187.5,53.5C 187.167,53.5 186.833,53.5 186.5,53.5C 185.167,53.5 183.833,53.5 182.5,53.5C 181.167,52.8333 179.833,52.1667 178.5,51.5C 180.92,51.2924 183.253,51.6258 185.5,52.5C 186.298,52.0431 186.631,51.3764 186.5,50.5 Z"/></g>
<g><path style="opacity:1" fill="#7b5bc8" d="M 189.5,46.5 C 189.259,49.0336 190.259,50.7002 192.5,51.5C 192.5,52.5 192.5,53.5 192.5,54.5C 192.167,54.5 191.833,54.5 191.5,54.5C 190.833,53.1667 190.167,53.1667 189.5,54.5C 188.833,54.5 188.167,54.5 187.5,54.5C 187.5,54.1667 187.5,53.8333 187.5,53.5C 187.5,52.5 187.5,51.5 187.5,50.5C 188.167,49.1667 188.833,47.8333 189.5,46.5 Z"/></g>
<g><path style="opacity:1" fill="#795bc6" d="M 14.5,47.5 C 13.8466,48.8068 13.1799,50.1401 12.5,51.5C 13.325,52.3857 14.325,52.719 15.5,52.5C 14.8902,53.391 14.5569,54.391 14.5,55.5C 14.1667,55.5 13.8333,55.5 13.5,55.5C 13.2942,53.4508 12.4609,53.1175 11,54.5C 10.502,57.4816 10.3354,60.4816 10.5,63.5C 10.5,64.5 10.5,65.5 10.5,66.5C 9.83726,64.5274 9.50393,62.3608 9.5,60C 9.4314,55.9473 10.0981,52.114 11.5,48.5C 12.391,47.8902 13.391,47.5569 14.5,47.5 Z"/></g>
<g><path style="opacity:0.91" fill="#6b5dac" d="M 41.5,47.5 C 42.1667,47.5 42.8333,47.5 43.5,47.5C 43.8333,48.5 44.5,49.1667 45.5,49.5C 45.3284,50.4916 45.6618,51.1583 46.5,51.5C 48.2541,55.2576 48.9208,59.2576 48.5,63.5C 48.1667,63.5 47.8333,63.5 47.5,63.5C 47.6607,57.3106 45.6607,51.9773 41.5,47.5 Z"/></g>
<g><path style="opacity:1" fill="#6b5aba" d="M 97.5,53.5 C 99.7354,53.2053 101.735,53.5386 103.5,54.5C 100.519,54.7944 99.8522,56.1278 101.5,58.5C 101.5,59.5 101.5,60.5 101.5,61.5C 98.8333,61.5 96.1667,61.5 93.5,61.5C 95.5563,60.7839 97.723,60.1172 100,59.5C 100.167,59.1667 100.333,58.8333 100.5,58.5C 98.9547,57.5481 97.288,57.2148 95.5,57.5C 92.9179,57.9746 90.9179,57.3079 89.5,55.5C 89.8333,55.5 90.1667,55.5 90.5,55.5C 91.9464,56.6129 93.6131,56.7796 95.5,56C 96.756,55.5831 97.4226,54.7498 97.5,53.5 Z"/></g>
<g><path style="opacity:1" fill="#765cc2" d="M 111.5,52.5 C 111.833,52.5 112.167,52.5 112.5,52.5C 114.216,52.6287 115.883,52.962 117.5,53.5C 117.5,54.1667 117.5,54.8333 117.5,55.5C 116.5,55.5 115.5,55.5 114.5,55.5C 113.895,53.5188 112.895,53.1854 111.5,54.5C 111.5,53.8333 111.5,53.1667 111.5,52.5 Z"/></g>
<g><path style="opacity:1" fill="#7956c9" d="M 132.5,48.5 C 133.388,51.0545 133.721,53.7212 133.5,56.5C 132.833,56.5 132.5,56.8333 132.5,57.5C 131.833,58.1667 131.167,58.8333 130.5,59.5C 130.5,57.8333 130.5,56.1667 130.5,54.5C 130.025,51.9179 130.692,49.9179 132.5,48.5 Z"/></g>
<g><path style="opacity:0.945" fill="#7665c4" d="M 145.5,51.5 C 146.806,52.4674 147.473,53.8007 147.5,55.5C 147.167,56.5 146.5,57.1667 145.5,57.5C 145.167,57.5 144.833,57.5 144.5,57.5C 144.5,56.5 144.5,55.5 144.5,54.5C 143.209,54.2627 142.209,54.596 141.5,55.5C 141.167,55.5 140.833,55.5 140.5,55.5C 140.5,55.1667 140.5,54.8333 140.5,54.5C 141.048,51.9162 142.715,50.9162 145.5,51.5 Z"/></g>
<g><path style="opacity:1" fill="#745cc9" d="M 181.5,53.5 C 181.833,53.5 182.167,53.5 182.5,53.5C 183.833,53.5 185.167,53.5 186.5,53.5C 185.833,54.5 185.167,55.5 184.5,56.5C 183.167,56.5 181.833,56.5 180.5,56.5C 181.11,55.609 181.443,54.609 181.5,53.5 Z"/></g>
<g><path style="opacity:1" fill="#7958cc" d="M 97.5,52.5 C 97.5,52.8333 97.5,53.1667 97.5,53.5C 97.4226,54.7498 96.756,55.5831 95.5,56C 93.6131,56.7796 91.9464,56.6129 90.5,55.5C 92.3949,53.7587 94.7282,52.7587 97.5,52.5 Z"/></g>
<g><path style="opacity:1" fill="#745ac6" d="M 114.5,55.5 C 114.5,56.1667 114.167,56.5 113.5,56.5C 113.103,55.475 112.437,55.3083 111.5,56C 110.695,57.1127 110.028,58.2794 109.5,59.5C 108.5,58.8333 107.5,58.1667 106.5,57.5C 108.22,56.6923 109.887,55.6923 111.5,54.5C 112.895,53.1854 113.895,53.5188 114.5,55.5 Z"/></g>
<g><path style="opacity:1" fill="#7c5ac8" d="M 117.5,53.5 C 121.39,52.7768 124.056,54.1102 125.5,57.5C 123.653,58.5729 121.653,58.5729 119.5,57.5C 119.167,56.5 118.5,55.8333 117.5,55.5C 117.5,54.8333 117.5,54.1667 117.5,53.5 Z"/></g>
<g><path style="opacity:0.992" fill="#6c66be" d="M 158.5,51.5 C 157.694,52.7281 156.694,53.7281 155.5,54.5C 154.508,54.3284 153.842,54.6618 153.5,55.5C 152.833,55.5 152.5,55.8333 152.5,56.5C 151.833,57.5 151.167,58.5 150.5,59.5C 150.167,59.5 149.833,59.5 149.5,59.5C 150.619,54.7139 153.619,52.0473 158.5,51.5 Z"/></g>
<g><path style="opacity:0.992" fill="#6e53c3" d="M 161.5,53.5 C 162.396,54.5063 163.062,54.5063 163.5,53.5C 164.71,53.9321 165.71,54.5987 166.5,55.5C 165.624,55.3691 164.957,55.7025 164.5,56.5C 165.127,57.4168 165.461,58.4168 165.5,59.5C 165.167,59.5 164.833,59.5 164.5,59.5C 163.952,57.4677 162.619,56.4677 160.5,56.5C 161.11,55.609 161.443,54.609 161.5,53.5 Z"/></g>
<g><path style="opacity:0.961" fill="#7771c1" d="M 161.5,51.5 C 165.627,51.6349 168.294,53.6349 169.5,57.5C 169.167,57.5 168.833,57.5 168.5,57.5C 168.167,56.5 167.5,55.8333 166.5,55.5C 165.71,54.5987 164.71,53.9321 163.5,53.5C 162.833,52.8333 162.167,52.1667 161.5,51.5 Z"/></g>
<g><path style="opacity:0.82" fill="#766cc6" d="M 178.5,51.5 C 179.833,52.1667 181.167,52.8333 182.5,53.5C 182.167,53.5 181.833,53.5 181.5,53.5C 179.901,53.2322 178.568,53.5655 177.5,54.5C 175.5,54.5 174.5,55.5 174.5,57.5C 173.596,58.209 173.263,59.209 173.5,60.5C 172.833,60.5 172.167,60.5 171.5,60.5C 172.169,56.1443 174.502,53.1443 178.5,51.5 Z"/></g>
<g><path style="opacity:1" fill="#7657cd" d="M 181.5,53.5 C 181.443,54.609 181.11,55.609 180.5,56.5C 179.508,56.3284 178.842,56.6618 178.5,57.5C 177.596,56.791 177.263,55.791 177.5,54.5C 178.568,53.5655 179.901,53.2322 181.5,53.5 Z"/></g>
<g><path style="opacity:1" fill="#69c5d1" d="M 200.5,51.5 C 200.833,51.5 201.167,51.5 201.5,51.5C 204.734,52.0886 206.067,54.0886 205.5,57.5C 205.167,57.5 204.833,57.5 204.5,57.5C 204.167,57.5 203.833,57.5 203.5,57.5C 203.306,55.0882 201.973,54.0882 199.5,54.5C 199.557,53.391 199.89,52.391 200.5,51.5 Z"/></g>
<g><path style="opacity:1" fill="#59b1bc" d="M 219.5,51.5 C 217.5,52.1667 215.5,52.8333 213.5,53.5C 211.711,54.8772 209.711,55.8772 207.5,56.5C 208.219,54.1119 209.885,52.6119 212.5,52C 214.81,51.5034 217.143,51.3367 219.5,51.5 Z"/></g>
<g><path style="opacity:1" fill="#5ec6ce" d="M 219.5,51.5 C 220.167,51.5 220.5,51.8333 220.5,52.5C 221.11,53.391 221.443,54.391 221.5,55.5C 219.302,55.8751 217.302,56.5418 215.5,57.5C 214.833,57.8333 214.167,58.1667 213.5,58.5C 213.196,57.8501 212.863,57.1835 212.5,56.5C 214.167,55.8333 215.833,55.1667 217.5,54.5C 216.311,53.5713 214.978,53.238 213.5,53.5C 215.5,52.8333 217.5,52.1667 219.5,51.5 Z"/></g>
<g><path style="opacity:1" fill="#7958c7" d="M 13.5,55.5 C 13.8333,55.5 14.1667,55.5 14.5,55.5C 14.5,57.5 14.5,59.5 14.5,61.5C 14.5,62.1667 14.5,62.8333 14.5,63.5C 14.1667,63.5 13.8333,63.5 13.5,63.5C 12.596,62.791 12.2627,61.791 12.5,60.5C 12.2155,58.5853 12.5489,56.9187 13.5,55.5 Z"/></g>
<g><path style="opacity:0.718" fill="#534699" d="M 25.5,51.5 C 25.8333,51.5 26.1667,51.5 26.5,51.5C 27.1667,51.5 27.5,51.8333 27.5,52.5C 27.5,52.8333 27.5,53.1667 27.5,53.5C 27.5,53.8333 27.5,54.1667 27.5,54.5C 26.5139,58.97 26.1805,63.6367 26.5,68.5C 26.5,69.1667 26.5,69.8333 26.5,70.5C 25.7953,64.6306 25.1286,58.6306 24.5,52.5C 24.6236,51.8933 24.9569,51.56 25.5,51.5 Z"/></g>
<g><path style="opacity:1" fill="#7a5ac9" d="M 49.5,50.5 C 49.2155,52.4147 49.5489,54.0813 50.5,55.5C 50.1667,56.8333 49.8333,58.1667 49.5,59.5C 49.7678,61.099 49.4345,62.4324 48.5,63.5C 48.9208,59.2576 48.2541,55.2576 46.5,51.5C 47.609,51.4431 48.609,51.1098 49.5,50.5 Z"/></g>
<g><path style="opacity:1" fill="#7b55c9" d="M 52.5,55.5 C 52.5,58.1667 52.5,60.8333 52.5,63.5C 52.1667,63.5 51.8333,63.5 51.5,63.5C 51.7709,61.6203 51.1042,60.287 49.5,59.5C 49.8333,58.1667 50.1667,56.8333 50.5,55.5C 50.9377,54.4937 51.6043,54.4937 52.5,55.5 Z"/></g>
<g><path style="opacity:0.361" fill="#6f65b6" d="M 134.5,47.5 C 135.323,50.977 135.823,54.6437 136,58.5C 137.371,56.9586 138.871,55.6253 140.5,54.5C 140.5,54.8333 140.5,55.1667 140.5,55.5C 140.167,56.1667 139.833,56.8333 139.5,57.5C 138.18,58.9418 136.514,59.6085 134.5,59.5C 134.5,55.5 134.5,51.5 134.5,47.5 Z"/></g>
<g><path style="opacity:1" fill="#7c57c9" d="M 144.5,57.5 C 143.222,57.7822 142.222,58.4489 141.5,59.5C 141.5,58.1667 141.5,56.8333 141.5,55.5C 142.209,54.596 143.209,54.2627 144.5,54.5C 144.5,55.5 144.5,56.5 144.5,57.5 Z"/></g>
<g><path style="opacity:0.996" fill="#7857ca" d="M 161.5,53.5 C 161.443,54.609 161.11,55.609 160.5,56.5C 158.446,56.3653 156.779,57.032 155.5,58.5C 155.715,56.8212 155.048,55.8212 153.5,55.5C 153.842,54.6618 154.508,54.3284 155.5,54.5C 157.5,54.1667 159.5,53.8333 161.5,53.5 Z"/></g>
<g><path style="opacity:0.933" fill="#6550be" d="M 186.5,53.5 C 186.833,53.5 187.167,53.5 187.5,53.5C 187.5,53.8333 187.5,54.1667 187.5,54.5C 187.5,55.8333 187.5,57.1667 187.5,58.5C 186.833,58.5 186.167,58.5 185.5,58.5C 185.167,57.8333 184.833,57.1667 184.5,56.5C 185.167,55.5 185.833,54.5 186.5,53.5 Z"/></g>
<g><path style="opacity:0.969" fill="#756ec3" d="M 192.5,47.5 C 192.833,47.5 193.167,47.5 193.5,47.5C 194.655,54.3209 194.821,61.3209 194,68.5C 193.8,70.3197 192.966,71.653 191.5,72.5C 191.5,71.8333 191.5,71.1667 191.5,70.5C 192.301,68.9582 192.634,67.2915 192.5,65.5C 192.5,63.5 192.5,61.5 192.5,59.5C 192.5,57.8333 192.5,56.1667 192.5,54.5C 192.5,53.5 192.5,52.5 192.5,51.5C 192.5,50.1667 192.5,48.8333 192.5,47.5 Z"/></g>
<g><path style="opacity:1" fill="#62c8c7" d="M 213.5,53.5 C 214.978,53.238 216.311,53.5713 217.5,54.5C 215.833,55.1667 214.167,55.8333 212.5,56.5C 212.863,57.1835 213.196,57.8501 213.5,58.5C 212.833,59.5 212.167,60.5 211.5,61.5C 211.785,59.712 211.452,58.0453 210.5,56.5C 209.85,58.1836 208.85,59.5169 207.5,60.5C 207.167,60.5 206.833,60.5 206.5,60.5C 206.232,58.901 206.566,57.5676 207.5,56.5C 209.711,55.8772 211.711,54.8772 213.5,53.5 Z"/></g>
<g><path style="opacity:1" fill="#62bdc0" d="M 220.5,52.5 C 223.732,52.7717 225.732,54.4384 226.5,57.5C 225.609,56.8902 224.609,56.5569 223.5,56.5C 222.833,56.5 222.167,56.5 221.5,56.5C 221.5,56.1667 221.5,55.8333 221.5,55.5C 221.443,54.391 221.11,53.391 220.5,52.5 Z"/></g>
<g><path style="opacity:1" fill="#7857cb" d="M 13.5,55.5 C 12.5489,56.9187 12.2155,58.5853 12.5,60.5C 11.8333,61.5 11.1667,62.5 10.5,63.5C 10.3354,60.4816 10.502,57.4816 11,54.5C 12.4609,53.1175 13.2942,53.4508 13.5,55.5 Z"/></g>
<g><path style="opacity:0.918" fill="#6b5cad" d="M 17.5,51.5 C 16.5178,54.7635 15.8511,58.0968 15.5,61.5C 15.1667,61.5 14.8333,61.5 14.5,61.5C 14.5,59.5 14.5,57.5 14.5,55.5C 14.5569,54.391 14.8902,53.391 15.5,52.5C 16.1667,52.1667 16.8333,51.8333 17.5,51.5 Z"/></g>
<g><path style="opacity:1" fill="#775ac5" d="M 27.5,53.5 C 27.8333,53.5 28.1667,53.5 28.5,53.5C 30.1788,53.2852 31.1788,53.9519 31.5,55.5C 30.8826,55.3893 30.3826,55.056 30,54.5C 29.9504,56.744 29.1171,58.4107 27.5,59.5C 27.5,57.8333 27.5,56.1667 27.5,54.5C 27.5,54.1667 27.5,53.8333 27.5,53.5 Z"/></g>
<g><path style="opacity:1" fill="#786ac8" d="M 111.5,52.5 C 111.5,53.1667 111.5,53.8333 111.5,54.5C 109.887,55.6923 108.22,56.6923 106.5,57.5C 106.5,58.1667 106.5,58.8333 106.5,59.5C 106.167,59.5 105.833,59.5 105.5,59.5C 105.5,58.1667 105.5,56.8333 105.5,55.5C 105.833,55.5 106.167,55.5 106.5,55.5C 108.411,54.925 110.078,53.925 111.5,52.5 Z"/></g>
<g><path style="opacity:0.643" fill="#7265c5" d="M 114.5,55.5 C 115.5,55.5 116.5,55.5 117.5,55.5C 118.5,55.8333 119.167,56.5 119.5,57.5C 117.585,57.2155 115.919,57.5489 114.5,58.5C 114.167,58.5 113.833,58.5 113.5,58.5C 113.5,57.8333 113.5,57.1667 113.5,56.5C 114.167,56.5 114.5,56.1667 114.5,55.5 Z"/></g>
<g><path style="opacity:1" fill="#7967c5" d="M 132.5,46.5 C 133.167,46.5 133.833,46.5 134.5,46.5C 134.5,46.8333 134.5,47.1667 134.5,47.5C 134.5,51.5 134.5,55.5 134.5,59.5C 133.596,58.791 133.263,57.791 133.5,56.5C 133.721,53.7212 133.388,51.0545 132.5,48.5C 132.5,47.8333 132.5,47.1667 132.5,46.5 Z"/></g>
<g><path style="opacity:1" fill="#7c54d0" d="M 153.5,55.5 C 155.048,55.8212 155.715,56.8212 155.5,58.5C 155.5,58.8333 155.5,59.1667 155.5,59.5C 154.504,59.4142 153.671,59.7476 153,60.5C 152.51,59.2068 152.343,57.8734 152.5,56.5C 152.5,55.8333 152.833,55.5 153.5,55.5 Z"/></g>
<g><path style="opacity:0.865" fill="#655cb7" d="M 160.5,56.5 C 162.619,56.4677 163.952,57.4677 164.5,59.5C 164.672,60.4916 164.338,61.1583 163.5,61.5C 162.196,57.1762 159.863,56.5096 156.5,59.5C 156.167,59.5 155.833,59.5 155.5,59.5C 155.5,59.1667 155.5,58.8333 155.5,58.5C 156.779,57.032 158.446,56.3653 160.5,56.5 Z"/></g>
<g><path style="opacity:1" fill="#7a58c6" d="M 177.5,54.5 C 177.263,55.791 177.596,56.791 178.5,57.5C 178.5,57.8333 178.5,58.1667 178.5,58.5C 177.662,58.8417 177.328,59.5084 177.5,60.5C 175.146,61.4935 174.146,60.4935 174.5,57.5C 174.5,55.5 175.5,54.5 177.5,54.5 Z"/></g>
<g><path style="opacity:0.841" fill="#705db8" d="M 180.5,56.5 C 181.833,56.5 183.167,56.5 184.5,56.5C 184.833,57.1667 185.167,57.8333 185.5,58.5C 183.5,57.1667 181.5,57.1667 179.5,58.5C 179.167,58.5 178.833,58.5 178.5,58.5C 178.5,58.1667 178.5,57.8333 178.5,57.5C 178.842,56.6618 179.508,56.3284 180.5,56.5 Z"/></g>
<g><path style="opacity:1" fill="#7759c4" d="M 191.5,54.5 C 190.833,59.8333 190.167,59.8333 189.5,54.5C 190.167,53.1667 190.833,53.1667 191.5,54.5 Z"/></g>
<g><path style="opacity:0.949" fill="#59b3ba" d="M 221.5,55.5 C 221.5,55.8333 221.5,56.1667 221.5,56.5C 220.89,57.391 220.557,58.391 220.5,59.5C 219.18,58.0582 217.514,57.3915 215.5,57.5C 217.302,56.5418 219.302,55.8751 221.5,55.5 Z"/></g>
<g><path style="opacity:0.965" fill="#6362ad" d="M 89.5,54.5 C 89.5,54.8333 89.5,55.1667 89.5,55.5C 90.9179,57.3079 92.9179,57.9746 95.5,57.5C 95.3893,58.1174 95.056,58.6174 94.5,59C 92.1902,59.4966 89.8568,59.6633 87.5,59.5C 87.4021,57.4471 88.0687,55.7804 89.5,54.5 Z"/></g>
<g><path style="opacity:1" fill="#7657c7" d="M 103.5,54.5 C 104.167,54.5 104.5,54.8333 104.5,55.5C 104.5,56.5 104.5,57.5 104.5,58.5C 103.5,58.5 102.5,58.5 101.5,58.5C 99.8522,56.1278 100.519,54.7944 103.5,54.5 Z"/></g>
<g><path style="opacity:1" fill="#7a5aca" d="M 140.5,55.5 C 140.833,55.5 141.167,55.5 141.5,55.5C 141.5,56.8333 141.5,58.1667 141.5,59.5C 141.5,60.8333 141.5,62.1667 141.5,63.5C 140.637,64.463 139.97,64.463 139.5,63.5C 140.735,61.6837 140.735,60.017 139.5,58.5C 139.5,58.1667 139.5,57.8333 139.5,57.5C 139.833,56.8333 140.167,56.1667 140.5,55.5 Z"/></g>
<g><path style="opacity:1" fill="#7d57ca" d="M 187.5,54.5 C 188.167,54.5 188.833,54.5 189.5,54.5C 190.167,59.8333 190.833,59.8333 191.5,54.5C 191.833,54.5 192.167,54.5 192.5,54.5C 192.5,56.1667 192.5,57.8333 192.5,59.5C 191.5,59.5 190.5,59.5 189.5,59.5C 189.5,60.5 189.5,61.5 189.5,62.5C 189.167,62.5 188.833,62.5 188.5,62.5C 188.167,61.1667 187.833,59.8333 187.5,58.5C 187.5,57.1667 187.5,55.8333 187.5,54.5 Z"/></g>
<g><path style="opacity:0.745" fill="#60b6cb" d="M 199.5,51.5 C 199.833,51.5 200.167,51.5 200.5,51.5C 199.89,52.391 199.557,53.391 199.5,54.5C 199.5,56.1667 199.5,57.8333 199.5,59.5C 199.768,61.099 199.434,62.4324 198.5,63.5C 198.183,59.2984 198.517,55.2984 199.5,51.5 Z"/></g>
<g><path style="opacity:1" fill="#7a57c8" d="M 31.5,55.5 C 32.9516,56.3019 34.6183,56.8019 36.5,57C 37.3802,58.3561 37.7135,59.8561 37.5,61.5C 35.5,61.5 33.5,61.5 31.5,61.5C 30.0568,62.3351 29.0568,63.6684 28.5,65.5C 27.5344,63.604 27.2011,61.604 27.5,59.5C 29.1171,58.4107 29.9504,56.744 30,54.5C 30.3826,55.056 30.8826,55.3893 31.5,55.5 Z"/></g>
<g><path style="opacity:1" fill="#7959c3" d="M 104.5,55.5 C 104.833,55.5 105.167,55.5 105.5,55.5C 105.5,56.8333 105.5,58.1667 105.5,59.5C 105.5,62.1667 105.5,64.8333 105.5,67.5C 104.596,66.791 104.263,65.791 104.5,64.5C 104.5,63.5 104.5,62.5 104.5,61.5C 103.5,61.5 102.5,61.5 101.5,61.5C 101.5,60.5 101.5,59.5 101.5,58.5C 102.5,58.5 103.5,58.5 104.5,58.5C 104.5,57.5 104.5,56.5 104.5,55.5 Z"/></g>
<g><path style="opacity:0.995" fill="#7c54c5" d="M 113.5,56.5 C 113.5,57.1667 113.5,57.8333 113.5,58.5C 112.691,60.0276 112.024,61.6943 111.5,63.5C 111.167,63.5 110.833,63.5 110.5,63.5C 109.766,62.2921 109.433,60.9587 109.5,59.5C 110.028,58.2794 110.695,57.1127 111.5,56C 112.437,55.3083 113.103,55.475 113.5,56.5 Z"/></g>
<g><path style="opacity:1" fill="#6a68b8" d="M 119.5,57.5 C 121.653,58.5729 123.653,58.5729 125.5,57.5C 126.167,57.5 126.833,57.5 127.5,57.5C 127.5,58.5 127.5,59.5 127.5,60.5C 125.5,60.5 123.5,60.5 121.5,60.5C 120.833,59.5 120.167,58.5 119.5,57.5 Z"/></g>
<g><path style="opacity:1" fill="#795ac8" d="M 132.5,57.5 C 132.5,58.5 132.5,59.5 132.5,60.5C 134.167,60.5 135.833,60.5 137.5,60.5C 136.432,61.4345 135.099,61.7678 133.5,61.5C 132.391,61.4431 131.391,61.1098 130.5,60.5C 130.5,60.1667 130.5,59.8333 130.5,59.5C 131.167,58.8333 131.833,58.1667 132.5,57.5 Z"/></g>
<g><path style="opacity:0.906" fill="#7a66b4" d="M 144.5,57.5 C 144.833,57.5 145.167,57.5 145.5,57.5C 143.615,59.0532 142.615,61.0532 142.5,63.5C 142.167,63.5 141.833,63.5 141.5,63.5C 141.5,62.1667 141.5,60.8333 141.5,59.5C 142.222,58.4489 143.222,57.7822 144.5,57.5 Z"/></g>
<g><path style="opacity:1" fill="#7856cb" d="M 166.5,55.5 C 167.5,55.8333 168.167,56.5 168.5,57.5C 168.737,58.791 168.404,59.791 167.5,60.5C 166.508,60.6716 165.842,60.3382 165.5,59.5C 165.461,58.4168 165.127,57.4168 164.5,56.5C 164.957,55.7025 165.624,55.3691 166.5,55.5 Z"/></g>
<g><path style="opacity:1" fill="#785ec4" d="M 174.5,57.5 C 174.146,60.4935 175.146,61.4935 177.5,60.5C 177.5,63.1667 177.5,65.8333 177.5,68.5C 175.424,61.85 174.09,62.1834 173.5,69.5C 172.566,68.4324 172.232,67.099 172.5,65.5C 172.366,63.7085 172.699,62.0418 173.5,60.5C 173.263,59.209 173.596,58.209 174.5,57.5 Z"/></g>
<g><path style="opacity:1" fill="#65c6c4" d="M 199.5,54.5 C 201.973,54.0882 203.306,55.0882 203.5,57.5C 203.5,58.8333 203.5,60.1667 203.5,61.5C 202.5,61.5 201.5,61.5 200.5,61.5C 200.672,60.5084 200.338,59.8417 199.5,59.5C 199.5,57.8333 199.5,56.1667 199.5,54.5 Z"/></g>
<g><path style="opacity:1" fill="#61c7be" d="M 221.5,56.5 C 222.167,56.5 222.833,56.5 223.5,56.5C 223.5,57.8333 223.5,59.1667 223.5,60.5C 222.391,60.4431 221.391,60.1098 220.5,59.5C 220.557,58.391 220.89,57.391 221.5,56.5 Z"/></g>
<g><path style="opacity:0.929" fill="#7160a8" d="M 11.5,48.5 C 10.0981,52.114 9.4314,55.9473 9.5,60C 9.50393,62.3608 9.83726,64.5274 10.5,66.5C 11.038,68.1172 11.3713,69.7839 11.5,71.5C 9.02249,68.1888 8.02249,64.3554 8.5,60C 8.02249,55.6446 9.02249,51.8112 11.5,48.5 Z"/></g>
<g><path style="opacity:1" fill="#7a66c5" d="M 51.5,48.5 C 52.9313,49.7804 53.5979,51.4471 53.5,53.5C 53.5,58.1667 53.5,62.8333 53.5,67.5C 53.1667,67.5 52.8333,67.5 52.5,67.5C 52.5,66.1667 52.5,64.8333 52.5,63.5C 52.5,60.8333 52.5,58.1667 52.5,55.5C 52.3259,53.139 51.9926,50.8056 51.5,48.5 Z"/></g>
<g><path style="opacity:0.918" fill="#8379bf" d="M 53.5,53.5 C 56.1667,58.1667 56.1667,62.8333 53.5,67.5C 53.5,62.8333 53.5,58.1667 53.5,53.5 Z"/></g>
<g><path style="opacity:0.937" fill="#7759c0" d="M 113.5,58.5 C 113.833,58.5 114.167,58.5 114.5,58.5C 114.5,58.8333 114.5,59.1667 114.5,59.5C 114.5,60.1667 114.5,60.8333 114.5,61.5C 113.596,62.209 113.263,63.209 113.5,64.5C 115.621,64.3253 117.621,64.6586 119.5,65.5C 119.5,65.8333 119.5,66.1667 119.5,66.5C 116.471,66.2402 113.804,65.2402 111.5,63.5C 112.024,61.6943 112.691,60.0276 113.5,58.5 Z"/></g>
<g><path style="opacity:1" fill="#745bc2" d="M 133.5,56.5 C 133.263,57.791 133.596,58.791 134.5,59.5C 136.514,59.6085 138.18,58.9418 139.5,57.5C 139.5,57.8333 139.5,58.1667 139.5,58.5C 139.167,59.5 138.5,60.1667 137.5,60.5C 135.833,60.5 134.167,60.5 132.5,60.5C 132.5,59.5 132.5,58.5 132.5,57.5C 132.5,56.8333 132.833,56.5 133.5,56.5 Z"/></g>
<g><path style="opacity:0.722" fill="#5e60af" d="M 31.5,55.5 C 31.8333,55.5 32.1667,55.5 32.5,55.5C 34.5,55.5 36.5,55.5 38.5,55.5C 38.5,58.1667 38.5,60.8333 38.5,63.5C 36.5,63.5 34.5,63.5 32.5,63.5C 34.1667,62.8333 35.8333,62.1667 37.5,61.5C 37.7135,59.8561 37.3802,58.3561 36.5,57C 34.6183,56.8019 32.9516,56.3019 31.5,55.5 Z"/></g>
<g><path style="opacity:1" fill="#7b57cc" d="M 49.5,59.5 C 51.1042,60.287 51.7709,61.6203 51.5,63.5C 51.7373,64.791 51.404,65.791 50.5,66.5C 49.0937,66.0269 48.427,65.0269 48.5,63.5C 49.4345,62.4324 49.7678,61.099 49.5,59.5 Z"/></g>
<g><path style="opacity:0.439" fill="#7061bb" d="M 106.5,57.5 C 107.5,58.1667 108.5,58.8333 109.5,59.5C 109.433,60.9587 109.766,62.2921 110.5,63.5C 109.833,63.5 109.167,63.5 108.5,63.5C 108.5,62.8333 108.167,62.5 107.5,62.5C 107.5,61.8333 107.167,61.5 106.5,61.5C 106.5,60.8333 106.5,60.1667 106.5,59.5C 106.5,58.8333 106.5,58.1667 106.5,57.5 Z"/></g>
<g><path style="opacity:1" fill="#7859ca" d="M 152.5,56.5 C 152.343,57.8734 152.51,59.2068 153,60.5C 153.671,59.7476 154.504,59.4142 155.5,59.5C 155.833,59.5 156.167,59.5 156.5,59.5C 156.5,60.1667 156.5,60.8333 156.5,61.5C 154.219,61.0773 152.552,61.744 151.5,63.5C 151.672,64.4916 151.338,65.1583 150.5,65.5C 150.5,63.5 150.5,61.5 150.5,59.5C 151.167,58.5 151.833,57.5 152.5,56.5 Z"/></g>
<g><path style="opacity:0.663" fill="#6861a7" d="M 73.5,51.5 C 73.8333,51.5 74.1667,51.5 74.5,51.5C 74.5,53.8333 74.5,56.1667 74.5,58.5C 74.5,62.1667 74.5,65.8333 74.5,69.5C 74.5,71.5 74.5,73.5 74.5,75.5C 76.1667,75.5 77.8333,75.5 79.5,75.5C 79.5,67.5 79.5,59.5 79.5,51.5C 79.8333,51.5 80.1667,51.5 80.5,51.5C 80.5,59.8333 80.5,68.1667 80.5,76.5C 78.1667,76.5 75.8333,76.5 73.5,76.5C 73.5,68.1667 73.5,59.8333 73.5,51.5 Z"/></g>
<g><path style="opacity:1" fill="#775dc8" d="M 74.5,58.5 C 75.391,59.1098 76.391,59.4431 77.5,59.5C 77.4242,62.9728 76.7576,66.3061 75.5,69.5C 75.1667,69.5 74.8333,69.5 74.5,69.5C 74.5,65.8333 74.5,62.1667 74.5,58.5 Z"/></g>
<g><path style="opacity:1" fill="#7658c7" d="M 74.5,51.5 C 75.8333,51.5 77.1667,51.5 78.5,51.5C 78.5,52.8333 78.5,54.1667 78.5,55.5C 77.5655,56.5676 77.2322,57.901 77.5,59.5C 76.391,59.4431 75.391,59.1098 74.5,58.5C 74.5,56.1667 74.5,53.8333 74.5,51.5 Z"/></g>
<g><path style="opacity:0.188" fill="#7a71be" d="M 114.5,59.5 C 116.764,60.2186 119.097,60.552 121.5,60.5C 123.869,61.69 125.869,63.3567 127.5,65.5C 127.5,66.1667 127.167,66.5 126.5,66.5C 125.738,64.7376 124.404,63.7376 122.5,63.5C 121.22,62.0687 119.553,61.4021 117.5,61.5C 116.5,61.5 115.5,61.5 114.5,61.5C 114.5,60.8333 114.5,60.1667 114.5,59.5 Z"/></g>
<g><path style="opacity:1" fill="#7b56ca" d="M 130.5,60.5 C 131.391,61.1098 132.391,61.4431 133.5,61.5C 133.611,62.1174 133.944,62.6174 134.5,63C 132.771,64.7889 132.104,66.9556 132.5,69.5C 131.833,69.5 131.167,69.5 130.5,69.5C 130.5,66.5 130.5,63.5 130.5,60.5 Z"/></g>
<g><path style="opacity:1" fill="#7958c9" d="M 139.5,58.5 C 140.735,60.017 140.735,61.6837 139.5,63.5C 139.97,64.463 140.637,64.463 141.5,63.5C 141.833,63.5 142.167,63.5 142.5,63.5C 141.916,66.285 142.916,67.9517 145.5,68.5C 145.5,70.1667 145.5,71.8333 145.5,73.5C 144.5,73.5 143.5,73.5 142.5,73.5C 141.833,72.8333 141.167,72.1667 140.5,71.5C 139.99,67.3203 137.656,65.3203 133.5,65.5C 133.5,66.8333 133.5,68.1667 133.5,69.5C 133.167,69.5 132.833,69.5 132.5,69.5C 132.104,66.9556 132.771,64.7889 134.5,63C 133.944,62.6174 133.611,62.1174 133.5,61.5C 135.099,61.7678 136.432,61.4345 137.5,60.5C 138.5,60.1667 139.167,59.5 139.5,58.5 Z"/></g>
<g><path style="opacity:1" fill="#7d5ac6" d="M 164.5,59.5 C 164.833,59.5 165.167,59.5 165.5,59.5C 165.842,60.3382 166.508,60.6716 167.5,60.5C 166.316,61.6879 166.316,62.8545 167.5,64C 166.207,64.49 164.873,64.6567 163.5,64.5C 161.302,64.5912 160.969,63.9245 162.5,62.5C 162.5,62.1667 162.5,61.8333 162.5,61.5C 162.833,61.5 163.167,61.5 163.5,61.5C 164.338,61.1583 164.672,60.4916 164.5,59.5 Z"/></g>
<g><path style="opacity:1" fill="#765ec3" d="M 168.5,57.5 C 168.833,57.5 169.167,57.5 169.5,57.5C 170.167,60.1667 170.833,62.8333 171.5,65.5C 168.833,65.5 166.167,65.5 163.5,65.5C 163.5,65.1667 163.5,64.8333 163.5,64.5C 164.873,64.6567 166.207,64.49 167.5,64C 166.316,62.8545 166.316,61.6879 167.5,60.5C 168.404,59.791 168.737,58.791 168.5,57.5 Z"/></g>
<g><path style="opacity:1" fill="#7a55cf" d="M 192.5,59.5 C 192.5,61.5 192.5,63.5 192.5,65.5C 191.833,65.5 191.167,65.5 190.5,65.5C 189.89,64.609 189.557,63.609 189.5,62.5C 189.5,61.5 189.5,60.5 189.5,59.5C 190.5,59.5 191.5,59.5 192.5,59.5 Z"/></g>
<g><path style="opacity:1" fill="#67c4c0" d="M 200.5,61.5 C 201.5,61.5 202.5,61.5 203.5,61.5C 203.5,62.8333 203.5,64.1667 203.5,65.5C 202.833,65.5 202.167,65.5 201.5,65.5C 201.167,64.1667 200.833,62.8333 200.5,61.5 Z"/></g>
<g><path style="opacity:1" fill="#65c7bf" d="M 211.5,61.5 C 211.5,62.1667 211.5,62.8333 211.5,63.5C 210.167,62.8333 208.833,62.1667 207.5,61.5C 207.5,61.1667 207.5,60.8333 207.5,60.5C 208.85,59.5169 209.85,58.1836 210.5,56.5C 211.452,58.0453 211.785,59.712 211.5,61.5 Z"/></g>
<g><path style="opacity:1" fill="#7961c6" d="M 93.5,61.5 C 96.1667,61.5 98.8333,61.5 101.5,61.5C 101.5,62.1667 101.5,62.8333 101.5,63.5C 99.5168,63.1568 98.1834,63.8235 97.5,65.5C 96.5,65.5 95.5,65.5 94.5,65.5C 94.9528,64.5416 95.6195,63.7083 96.5,63C 94.2028,62.9822 91.8695,63.1489 89.5,63.5C 90.287,61.8958 91.6203,61.2291 93.5,61.5 Z"/></g>
<g><path style="opacity:1" fill="#7f6dc3" d="M 149.5,59.5 C 149.833,59.5 150.167,59.5 150.5,59.5C 150.5,61.5 150.5,63.5 150.5,65.5C 150.833,66.8333 151.167,68.1667 151.5,69.5C 150.833,69.1667 150.167,68.8333 149.5,68.5C 148.167,65.5 148.167,62.5 149.5,59.5 Z"/></g>
<g><path style="opacity:1" fill="#9781ce" d="M 162.5,61.5 C 162.5,61.8333 162.5,62.1667 162.5,62.5C 160.833,62.5 159.167,62.5 157.5,62.5C 155.565,63.1495 153.565,63.4828 151.5,63.5C 152.552,61.744 154.219,61.0773 156.5,61.5C 158.611,60.2584 160.611,60.2584 162.5,61.5 Z"/></g>
<g><path style="opacity:0.991" fill="#67b6ba" d="M 220.5,59.5 C 221.391,60.1098 222.391,60.4431 223.5,60.5C 224.097,60.7352 224.43,61.2352 224.5,62C 223.115,63.5971 222.449,65.4305 222.5,67.5C 222.5,68.8333 222.5,70.1667 222.5,71.5C 222.5,72.8333 222.5,74.1667 222.5,75.5C 221.883,75.3893 221.383,75.056 221,74.5C 220.501,69.5111 220.334,64.5111 220.5,59.5 Z"/></g>
<g><path style="opacity:1" fill="#50c0cc" d="M 227.5,60.5 C 227.5,63.1667 227.5,65.8333 227.5,68.5C 226.833,67.1667 226.167,65.8333 225.5,64.5C 225.157,62.5168 225.824,61.1834 227.5,60.5 Z"/></g>
<g><path style="opacity:0.996" fill="#7556cb" d="M 94.5,65.5 C 93.1667,65.5 92.5,66.1667 92.5,67.5C 91.596,68.209 91.2627,69.209 91.5,70.5C 90.8826,70.6107 90.3826,70.944 90,71.5C 89.7746,69.2091 89.6079,67.2091 89.5,65.5C 89.5,64.8333 89.5,64.1667 89.5,63.5C 91.8695,63.1489 94.2028,62.9822 96.5,63C 95.6195,63.7083 94.9528,64.5416 94.5,65.5 Z"/></g>
<g><path style="opacity:1" fill="#7168bc" d="M 101.5,63.5 C 101.5,63.8333 101.5,64.1667 101.5,64.5C 101.923,66.7812 101.256,68.4479 99.5,69.5C 100.234,68.2921 100.567,66.9587 100.5,65.5C 99.5,65.5 98.5,65.5 97.5,65.5C 98.1834,63.8235 99.5168,63.1568 101.5,63.5 Z"/></g>
<g><path style="opacity:1" fill="#8251cf" d="M 101.5,61.5 C 102.5,61.5 103.5,61.5 104.5,61.5C 104.5,62.5 104.5,63.5 104.5,64.5C 103.833,64.8333 103.167,65.1667 102.5,65.5C 102.5,64.8333 102.167,64.5 101.5,64.5C 101.5,64.1667 101.5,63.8333 101.5,63.5C 101.5,62.8333 101.5,62.1667 101.5,61.5 Z"/></g>
<g><path style="opacity:1" fill="#7b54c7" d="M 114.5,61.5 C 115.5,61.5 116.5,61.5 117.5,61.5C 118.806,62.4674 119.473,63.8007 119.5,65.5C 117.621,64.6586 115.621,64.3253 113.5,64.5C 113.263,63.209 113.596,62.209 114.5,61.5 Z"/></g>
<g><path style="opacity:1" fill="#7c5cca" d="M 117.5,61.5 C 119.553,61.4021 121.22,62.0687 122.5,63.5C 121.624,63.3691 120.957,63.7025 120.5,64.5C 121.63,65.6223 122.297,66.9557 122.5,68.5C 122.167,68.5 121.833,68.5 121.5,68.5C 121.167,67.5 120.5,66.8333 119.5,66.5C 119.5,66.1667 119.5,65.8333 119.5,65.5C 119.473,63.8007 118.806,62.4674 117.5,61.5 Z"/></g>
<g><path style="opacity:0.667" fill="#8872d3" d="M 169.5,57.5 C 170.167,58.5 170.833,59.5 171.5,60.5C 172.167,60.5 172.833,60.5 173.5,60.5C 172.699,62.0418 172.366,63.7085 172.5,65.5C 172.167,65.5 171.833,65.5 171.5,65.5C 170.833,62.8333 170.167,60.1667 169.5,57.5 Z"/></g>
<g><path style="opacity:1" fill="#765bc5" d="M 177.5,68.5 C 178.167,68.8333 178.833,69.1667 179.5,69.5C 180.167,69.5 180.5,69.8333 180.5,70.5C 180.5,70.8333 180.5,71.1667 180.5,71.5C 178.414,69.9766 176.748,70.31 175.5,72.5C 174.599,71.7095 173.932,70.7095 173.5,69.5C 174.09,62.1834 175.424,61.85 177.5,68.5 Z"/></g>
<g><path style="opacity:0.243" fill="#7c71c1" d="M 178.5,58.5 C 178.833,58.5 179.167,58.5 179.5,58.5C 178.167,62.1667 178.167,65.8333 179.5,69.5C 178.833,69.1667 178.167,68.8333 177.5,68.5C 177.5,65.8333 177.5,63.1667 177.5,60.5C 177.328,59.5084 177.662,58.8417 178.5,58.5 Z"/></g>
<g><path style="opacity:0.878" fill="#7e73bc" d="M 185.5,58.5 C 186.167,58.5 186.833,58.5 187.5,58.5C 187.833,59.8333 188.167,61.1667 188.5,62.5C 188.737,63.791 188.404,64.791 187.5,65.5C 186.833,63.1667 186.167,60.8333 185.5,58.5 Z"/></g>
<g><path style="opacity:0.923" fill="#6dc1cd" d="M 199.5,59.5 C 200.338,59.8417 200.672,60.5084 200.5,61.5C 200.833,62.8333 201.167,64.1667 201.5,65.5C 200.5,65.5 199.5,65.5 198.5,65.5C 198.5,64.8333 198.5,64.1667 198.5,63.5C 199.434,62.4324 199.768,61.099 199.5,59.5 Z"/></g>
<g><path style="opacity:1" fill="#70ccc9" d="M 203.5,57.5 C 203.833,57.5 204.167,57.5 204.5,57.5C 204.666,61.5138 204.499,65.5138 204,69.5C 202.708,70.7911 201.542,70.7911 200.5,69.5C 202.912,69.3059 203.912,67.9726 203.5,65.5C 203.5,64.1667 203.5,62.8333 203.5,61.5C 203.5,60.1667 203.5,58.8333 203.5,57.5 Z"/></g>
<g><path style="opacity:1" fill="#60c8c8" d="M 223.5,56.5 C 224.609,56.5569 225.609,56.8902 226.5,57.5C 227.11,58.391 227.443,59.391 227.5,60.5C 225.824,61.1834 225.157,62.5168 225.5,64.5C 225.5,65.1667 225.5,65.8333 225.5,66.5C 224.609,67.1098 223.609,67.4431 222.5,67.5C 222.449,65.4305 223.115,63.5971 224.5,62C 224.43,61.2352 224.097,60.7352 223.5,60.5C 223.5,59.1667 223.5,57.8333 223.5,56.5 Z"/></g>
<g><path style="opacity:1" fill="#7857c5" d="M 12.5,60.5 C 12.2627,61.791 12.596,62.791 13.5,63.5C 13.0679,64.7095 12.4013,65.7095 11.5,66.5C 11.1667,66.5 10.8333,66.5 10.5,66.5C 10.5,65.5 10.5,64.5 10.5,63.5C 11.1667,62.5 11.8333,61.5 12.5,60.5 Z"/></g>
<g><path style="opacity:1" fill="#7b56cb" d="M 78.5,55.5 C 78.5,60.1667 78.5,64.8333 78.5,69.5C 77.8333,69.5 77.1667,69.5 76.5,69.5C 76.1667,69.5 75.8333,69.5 75.5,69.5C 76.7576,66.3061 77.4242,62.9728 77.5,59.5C 77.2322,57.901 77.5655,56.5676 78.5,55.5 Z"/></g>
<g><path style="opacity:1" fill="#785ec2" d="M 157.5,62.5 C 159.167,62.5 160.833,62.5 162.5,62.5C 160.969,63.9245 161.302,64.5912 163.5,64.5C 163.5,64.8333 163.5,65.1667 163.5,65.5C 161.5,65.5 159.5,65.5 157.5,65.5C 158.263,64.7321 159.263,64.2321 160.5,64C 159.263,63.7679 158.263,63.2679 157.5,62.5 Z"/></g>
<g><path style="opacity:1" fill="#63c7c4" d="M 207.5,61.5 C 208.833,62.1667 210.167,62.8333 211.5,63.5C 210.89,64.391 210.557,65.391 210.5,66.5C 209.778,66.9175 209.278,67.5842 209,68.5C 208.617,67.944 208.117,67.6107 207.5,67.5C 207.5,65.5 207.5,63.5 207.5,61.5 Z"/></g>
<g><path style="opacity:1" fill="#6f50c6" d="M 27.5,54.5 C 27.5,56.1667 27.5,57.8333 27.5,59.5C 27.2011,61.604 27.5344,63.604 28.5,65.5C 29.0568,63.6684 30.0568,62.3351 31.5,61.5C 31.5,63.1667 31.5,64.8333 31.5,66.5C 30.0937,66.9731 29.427,67.9731 29.5,69.5C 28.609,68.8902 27.609,68.5569 26.5,68.5C 26.1805,63.6367 26.5139,58.97 27.5,54.5 Z"/></g>
<g><path style="opacity:0.831" fill="#7867c1" d="M 140.5,71.5 C 140.167,71.5 139.833,71.5 139.5,71.5C 138.396,69.6115 137.063,67.9448 135.5,66.5C 134.566,67.5676 134.232,68.901 134.5,70.5C 134.167,70.5 133.833,70.5 133.5,70.5C 133.5,70.1667 133.5,69.8333 133.5,69.5C 133.5,68.1667 133.5,66.8333 133.5,65.5C 137.656,65.3203 139.99,67.3203 140.5,71.5 Z"/></g>
<g><path style="opacity:1" fill="#7959c5" d="M 157.5,62.5 C 158.263,63.2679 159.263,63.7679 160.5,64C 159.263,64.2321 158.263,64.7321 157.5,65.5C 157.167,65.5 156.833,65.5 156.5,65.5C 154.007,65.1307 153.34,65.7973 154.5,67.5C 153.503,67.4701 152.836,67.9701 152.5,69C 152.989,70.1385 153.322,71.3052 153.5,72.5C 152.094,72.0269 151.427,71.0269 151.5,69.5C 151.167,68.1667 150.833,66.8333 150.5,65.5C 151.338,65.1583 151.672,64.4916 151.5,63.5C 153.565,63.4828 155.565,63.1495 157.5,62.5 Z"/></g>
<g><path style="opacity:1" fill="#785ec7" d="M 188.5,62.5 C 188.833,62.5 189.167,62.5 189.5,62.5C 189.557,63.609 189.89,64.609 190.5,65.5C 189.341,66.7403 188.341,68.0736 187.5,69.5C 187.5,68.1667 187.5,66.8333 187.5,65.5C 188.404,64.791 188.737,63.791 188.5,62.5 Z"/></g>
<g><path style="opacity:1" fill="#60bac3" d="M 213.5,58.5 C 213.822,64.358 213.489,70.0247 212.5,75.5C 212.5,73.8333 212.5,72.1667 212.5,70.5C 211.194,69.5326 210.527,68.1993 210.5,66.5C 210.557,65.391 210.89,64.391 211.5,63.5C 211.5,62.8333 211.5,62.1667 211.5,61.5C 212.167,60.5 212.833,59.5 213.5,58.5 Z"/></g>
<g><path style="opacity:1" fill="#7c58cd" d="M 13.5,63.5 C 13.8333,63.5 14.1667,63.5 14.5,63.5C 14.5,64.5 14.5,65.5 14.5,66.5C 13.8333,68.1667 13.1667,69.8333 12.5,71.5C 12.634,69.7085 12.3007,68.0418 11.5,66.5C 12.4013,65.7095 13.0679,64.7095 13.5,63.5 Z"/></g>
<g><path style="opacity:0.975" fill="#7165c0" d="M 31.5,61.5 C 33.5,61.5 35.5,61.5 37.5,61.5C 35.8333,62.1667 34.1667,62.8333 32.5,63.5C 33.1495,65.4352 33.4828,67.4352 33.5,69.5C 31.9519,69.1788 31.2852,68.1788 31.5,66.5C 31.5,64.8333 31.5,63.1667 31.5,61.5 Z"/></g>
<g><path style="opacity:0.945" fill="#6e62b5" d="M 94.5,65.5 C 95.5,65.5 96.5,65.5 97.5,65.5C 96.469,66.2485 95.3024,66.9152 94,67.5C 93.5304,68.5768 93.6971,69.5768 94.5,70.5C 93.8333,70.5 93.1667,70.5 92.5,70.5C 92.5,69.5 92.5,68.5 92.5,67.5C 92.5,66.1667 93.1667,65.5 94.5,65.5 Z"/></g>
<g><path style="opacity:1" fill="#7b57ca" d="M 104.5,64.5 C 104.263,65.791 104.596,66.791 105.5,67.5C 105.5,68.8333 105.5,70.1667 105.5,71.5C 103.031,70.3933 102.031,68.3933 102.5,65.5C 103.167,65.1667 103.833,64.8333 104.5,64.5 Z"/></g>
<g><path style="opacity:1" fill="#7664bd" d="M 105.5,59.5 C 105.833,59.5 106.167,59.5 106.5,59.5C 106.5,60.1667 106.5,60.8333 106.5,61.5C 106.5,63.8333 106.5,66.1667 106.5,68.5C 107.5,68.5 108.5,68.5 109.5,68.5C 108.89,69.391 108.557,70.391 108.5,71.5C 108.167,71.5 107.833,71.5 107.5,71.5C 107.565,71.0618 107.399,70.7284 107,70.5C 106.722,71.4158 106.222,72.0825 105.5,72.5C 105.5,72.1667 105.5,71.8333 105.5,71.5C 105.5,70.1667 105.5,68.8333 105.5,67.5C 105.5,64.8333 105.5,62.1667 105.5,59.5 Z"/></g>
<g><path style="opacity:0.929" fill="#756abb" d="M 108.5,63.5 C 109.167,63.5 109.833,63.5 110.5,63.5C 110.833,63.5 111.167,63.5 111.5,63.5C 113.804,65.2402 116.471,66.2402 119.5,66.5C 120.5,66.8333 121.167,67.5 121.5,68.5C 121.5,69.5 121.5,70.5 121.5,71.5C 120.167,71.5 118.833,71.5 117.5,71.5C 116.833,71.5 116.167,71.5 115.5,71.5C 115.5,71.1667 115.5,70.8333 115.5,70.5C 117.288,70.7852 118.955,70.4519 120.5,69.5C 120.333,69.1667 120.167,68.8333 120,68.5C 115.699,67.6503 111.865,65.9836 108.5,63.5 Z"/></g>
<g><path style="opacity:1" fill="#7857ca" d="M 122.5,63.5 C 124.404,63.7376 125.738,64.7376 126.5,66.5C 126.5,67.1667 126.5,67.8333 126.5,68.5C 124.804,66.871 123.804,67.2043 123.5,69.5C 122.833,69.5 122.5,69.1667 122.5,68.5C 122.297,66.9557 121.63,65.6223 120.5,64.5C 120.957,63.7025 121.624,63.3691 122.5,63.5 Z"/></g>
<g><path style="opacity:1" fill="#806cc3" d="M 142.5,63.5 C 144.25,64.6594 145.25,66.326 145.5,68.5C 142.916,67.9517 141.916,66.285 142.5,63.5 Z"/></g>
<g><path style="opacity:0.604" fill="#7671b8" d="M 156.5,66.5 C 156.5,66.1667 156.5,65.8333 156.5,65.5C 156.833,65.5 157.167,65.5 157.5,65.5C 159.5,65.5 161.5,65.5 163.5,65.5C 166.167,65.5 168.833,65.5 171.5,65.5C 171.833,65.5 172.167,65.5 172.5,65.5C 172.232,67.099 172.566,68.4324 173.5,69.5C 173.932,70.7095 174.599,71.7095 175.5,72.5C 175.5,73.1667 175.833,73.5 176.5,73.5C 176.833,74.1667 177.167,74.8333 177.5,75.5C 175.983,75.4894 174.816,74.8228 174,73.5C 172.097,71.559 171.264,69.2257 171.5,66.5C 166.5,66.5 161.5,66.5 156.5,66.5 Z"/></g>
<g><path style="opacity:1" fill="#7a58c9" d="M 190.5,65.5 C 191.167,65.5 191.833,65.5 192.5,65.5C 192.634,67.2915 192.301,68.9582 191.5,70.5C 189.952,70.8212 189.285,71.8212 189.5,73.5C 187.821,73.7148 186.821,73.0481 186.5,71.5C 186.328,70.5084 186.662,69.8417 187.5,69.5C 188.341,68.0736 189.341,66.7403 190.5,65.5 Z"/></g>
<g><path style="opacity:0.886" fill="#a2dfe8" d="M 206.5,60.5 C 206.833,60.5 207.167,60.5 207.5,60.5C 207.5,60.8333 207.5,61.1667 207.5,61.5C 207.5,63.5 207.5,65.5 207.5,67.5C 207.5,68.1667 207.5,68.8333 207.5,69.5C 206.596,70.209 206.263,71.209 206.5,72.5C 206.167,72.5 205.833,72.5 205.5,72.5C 205.5,68.8333 205.5,65.1667 205.5,61.5C 206.167,61.5 206.5,61.1667 206.5,60.5 Z"/></g>
<g><path style="opacity:1" fill="#715fc1" d="M 14.5,61.5 C 14.8333,61.5 15.1667,61.5 15.5,61.5C 16.0846,64.8483 17.418,67.8483 19.5,70.5C 19.5,71.5 19.5,72.5 19.5,73.5C 19.1667,73.5 18.8333,73.5 18.5,73.5C 17.0834,71.1563 15.7501,68.8229 14.5,66.5C 14.5,65.5 14.5,64.5 14.5,63.5C 14.5,62.8333 14.5,62.1667 14.5,61.5 Z"/></g>
<g><path style="opacity:1" fill="#745bc7" d="M 51.5,63.5 C 51.8333,63.5 52.1667,63.5 52.5,63.5C 52.5,64.8333 52.5,66.1667 52.5,67.5C 51.1581,69.3609 50.1581,71.3609 49.5,73.5C 49.5,72.1667 49.5,70.8333 49.5,69.5C 49.5569,68.391 49.8902,67.391 50.5,66.5C 51.404,65.791 51.7373,64.791 51.5,63.5 Z"/></g>
<g><path style="opacity:0.604" fill="#796ec0" d="M 106.5,61.5 C 107.167,61.5 107.5,61.8333 107.5,62.5C 107.5,64.1667 107.5,65.8333 107.5,67.5C 109.527,67.3379 111.527,67.5045 113.5,68C 114.252,68.6708 114.586,69.5041 114.5,70.5C 112.678,70.1692 111.011,69.5025 109.5,68.5C 108.5,68.5 107.5,68.5 106.5,68.5C 106.5,66.1667 106.5,63.8333 106.5,61.5 Z"/></g>
<g><path style="opacity:1" fill="#67c5c4" d="M 225.5,66.5 C 225.5,67.8333 225.5,69.1667 225.5,70.5C 224.391,70.5569 223.391,70.8902 222.5,71.5C 222.5,70.1667 222.5,68.8333 222.5,67.5C 223.609,67.4431 224.609,67.1098 225.5,66.5 Z"/></g>
<g><path style="opacity:1" fill="#7459c2" d="M 10.5,66.5 C 10.8333,66.5 11.1667,66.5 11.5,66.5C 12.3007,68.0418 12.634,69.7085 12.5,71.5C 12.5,72.1667 12.5,72.8333 12.5,73.5C 12.6716,74.4916 12.3382,75.1583 11.5,75.5C 11.5,74.5 11.5,73.5 11.5,72.5C 11.5,72.1667 11.5,71.8333 11.5,71.5C 11.3713,69.7839 11.038,68.1172 10.5,66.5 Z"/></g>
<g><path style="opacity:1" fill="#7a5ac3" d="M 47.5,63.5 C 47.8333,63.5 48.1667,63.5 48.5,63.5C 48.427,65.0269 49.0937,66.0269 50.5,66.5C 49.8902,67.391 49.5569,68.391 49.5,69.5C 48.391,69.5569 47.391,69.8902 46.5,70.5C 47.2186,68.2362 47.552,65.9029 47.5,63.5 Z"/></g>
<g><path style="opacity:1" fill="#7f56cd" d="M 126.5,68.5 C 126.5,69.5 126.5,70.5 126.5,71.5C 124.821,71.7148 123.821,71.0481 123.5,69.5C 123.804,67.2043 124.804,66.871 126.5,68.5 Z"/></g>
<g><path style="opacity:1" fill="#775dc6" d="M 129.5,54.5 C 129.833,54.5 130.167,54.5 130.5,54.5C 130.5,56.1667 130.5,57.8333 130.5,59.5C 130.5,59.8333 130.5,60.1667 130.5,60.5C 130.5,63.5 130.5,66.5 130.5,69.5C 130.5,70.8333 130.5,72.1667 130.5,73.5C 131.5,73.5 132.5,73.5 133.5,73.5C 133.5,72.5 133.5,71.5 133.5,70.5C 133.833,70.5 134.167,70.5 134.5,70.5C 134.5,71.8333 134.5,73.1667 134.5,74.5C 132.833,74.5 131.167,74.5 129.5,74.5C 129.5,72.8333 129.5,71.1667 129.5,69.5C 129.5,64.5 129.5,59.5 129.5,54.5 Z"/></g>
<g><path style="opacity:0.988" fill="#7273b7" d="M 166.5,67.5 C 167.833,67.5 169.167,67.5 170.5,67.5C 170.88,69.698 170.213,71.3646 168.5,72.5C 168.635,70.4458 167.968,68.7791 166.5,67.5 Z"/></g>
<g><path style="opacity:0.933" fill="#7263b4" d="M 187.5,65.5 C 187.5,66.8333 187.5,68.1667 187.5,69.5C 186.662,69.8417 186.328,70.5084 186.5,71.5C 184.833,71.5 183.167,71.5 181.5,71.5C 181.167,71.5 180.833,71.5 180.5,71.5C 180.5,71.1667 180.5,70.8333 180.5,70.5C 184.268,70.7194 186.602,69.0527 187.5,65.5 Z"/></g>
<g><path style="opacity:1" fill="#63c5c4" d="M 210.5,66.5 C 210.527,68.1993 211.194,69.5326 212.5,70.5C 211.391,70.5569 210.391,70.8902 209.5,71.5C 209.167,70.5 208.5,69.8333 207.5,69.5C 207.5,68.8333 207.5,68.1667 207.5,67.5C 208.117,67.6107 208.617,67.944 209,68.5C 209.278,67.5842 209.778,66.9175 210.5,66.5 Z"/></g>
<g><path style="opacity:1" fill="#6f58b7" d="M 26.5,68.5 C 27.609,68.5569 28.609,68.8902 29.5,69.5C 28.3143,70.9613 28.3143,72.2946 29.5,73.5C 30.1098,74.391 30.4431,75.391 30.5,76.5C 28.1782,75.1979 26.8449,73.1979 26.5,70.5C 26.5,69.8333 26.5,69.1667 26.5,68.5 Z"/></g>
<g><path style="opacity:1" fill="#7971c8" d="M 52.5,67.5 C 52.8333,67.5 53.1667,67.5 53.5,67.5C 53.2064,70.7541 51.873,73.4208 49.5,75.5C 49.5,74.8333 49.5,74.1667 49.5,73.5C 50.1581,71.3609 51.1581,69.3609 52.5,67.5 Z"/></g>
<g><path style="opacity:1" fill="#6c58a3" d="M 89.5,63.5 C 89.5,64.1667 89.5,64.8333 89.5,65.5C 88.5318,67.6074 88.1984,69.9407 88.5,72.5C 88.5,72.8333 88.5,73.1667 88.5,73.5C 85.6872,69.8857 86.0205,66.5524 89.5,63.5 Z"/></g>
<g><path style="opacity:0.984" fill="#7454c6" d="M 89.5,65.5 C 89.6079,67.2091 89.7746,69.2091 90,71.5C 90.3826,70.944 90.8826,70.6107 91.5,70.5C 91.1788,72.0481 90.1788,72.7148 88.5,72.5C 88.1984,69.9407 88.5318,67.6074 89.5,65.5 Z"/></g>
<g><path style="opacity:1" fill="#735bb7" d="M 127.5,65.5 C 127.833,65.5 128.167,65.5 128.5,65.5C 128.5,66.8333 128.5,68.1667 128.5,69.5C 128.167,70.1667 127.833,70.8333 127.5,71.5C 127.5,72.1667 127.167,72.5 126.5,72.5C 126.5,72.1667 126.5,71.8333 126.5,71.5C 126.5,70.5 126.5,69.5 126.5,68.5C 126.5,67.8333 126.5,67.1667 126.5,66.5C 127.167,66.5 127.5,66.1667 127.5,65.5 Z"/></g>
<g><path style="opacity:0.208" fill="#7064ad" d="M 149.5,68.5 C 150.167,68.8333 150.833,69.1667 151.5,69.5C 151.427,71.0269 152.094,72.0269 153.5,72.5C 154.167,73.5 154.833,74.5 155.5,75.5C 152.092,74.4222 150.092,72.0889 149.5,68.5 Z"/></g>
<g><path style="opacity:1" fill="#7162c2" d="M 156.5,65.5 C 156.5,65.8333 156.5,66.1667 156.5,66.5C 156.733,68.0618 157.4,69.3951 158.5,70.5C 157.833,70.5 157.5,70.8333 157.5,71.5C 156.026,70.5637 155.026,69.2303 154.5,67.5C 153.34,65.7973 154.007,65.1307 156.5,65.5 Z"/></g>
<g><path style="opacity:1" fill="#7559ca" d="M 31.5,66.5 C 31.2852,68.1788 31.9519,69.1788 33.5,69.5C 33.5,70.1667 33.5,70.8333 33.5,71.5C 33.2056,74.4811 31.8722,75.1478 29.5,73.5C 28.3143,72.2946 28.3143,70.9613 29.5,69.5C 29.427,67.9731 30.0937,66.9731 31.5,66.5 Z"/></g>
<g><path style="opacity:1" fill="#7760c5" d="M 78.5,51.5 C 78.8333,51.5 79.1667,51.5 79.5,51.5C 79.5,59.5 79.5,67.5 79.5,75.5C 77.8333,75.5 76.1667,75.5 74.5,75.5C 74.5,73.5 74.5,71.5 74.5,69.5C 74.8333,69.5 75.1667,69.5 75.5,69.5C 75.8333,69.5 76.1667,69.5 76.5,69.5C 75.962,71.1172 75.6287,72.7839 75.5,74.5C 76.5,74.5 77.5,74.5 78.5,74.5C 78.5,72.8333 78.5,71.1667 78.5,69.5C 78.5,64.8333 78.5,60.1667 78.5,55.5C 78.5,54.1667 78.5,52.8333 78.5,51.5 Z"/></g>
<g><path style="opacity:1" fill="#7b5bc5" d="M 101.5,64.5 C 102.167,64.5 102.5,64.8333 102.5,65.5C 102.031,68.3933 103.031,70.3933 105.5,71.5C 105.5,71.8333 105.5,72.1667 105.5,72.5C 103.938,72.7329 102.605,73.3995 101.5,74.5C 101.715,72.8212 101.048,71.8212 99.5,71.5C 99.5,70.8333 99.5,70.1667 99.5,69.5C 101.256,68.4479 101.923,66.7812 101.5,64.5 Z"/></g>
<g><path style="opacity:1" fill="#7c5cc2" d="M 109.5,68.5 C 111.011,69.5025 112.678,70.1692 114.5,70.5C 114.833,70.5 115.167,70.5 115.5,70.5C 115.5,70.8333 115.5,71.1667 115.5,71.5C 113.585,71.2155 111.919,71.5489 110.5,72.5C 109.833,72.1667 109.167,71.8333 108.5,71.5C 108.557,70.391 108.89,69.391 109.5,68.5 Z"/></g>
<g><path style="opacity:1" fill="#7264b3" d="M 166.5,67.5 C 167.968,68.7791 168.635,70.4458 168.5,72.5C 167.657,74.1733 166.324,75.34 164.5,76C 161.304,76.8045 158.304,76.6378 155.5,75.5C 158.059,75.8016 160.393,75.4682 162.5,74.5C 165.833,74.5 167.5,72.8333 167.5,69.5C 165.315,69.7036 163.315,70.3702 161.5,71.5C 160.167,71.5 158.833,71.5 157.5,71.5C 157.5,70.8333 157.833,70.5 158.5,70.5C 161.553,70.4279 164.219,69.4279 166.5,67.5 Z"/></g>
<g><path style="opacity:0.982" fill="#6bbfc3" d="M 207.5,69.5 C 208.5,69.8333 209.167,70.5 209.5,71.5C 207.814,74.5367 208.814,75.87 212.5,75.5C 210.735,76.4614 208.735,76.7947 206.5,76.5C 206.5,75.1667 206.5,73.8333 206.5,72.5C 206.263,71.209 206.596,70.209 207.5,69.5 Z"/></g>
<g><path style="opacity:1" fill="#5bc8cf" d="M 225.5,64.5 C 226.167,65.8333 226.833,67.1667 227.5,68.5C 227.802,71.0593 227.468,73.3926 226.5,75.5C 225.503,75.5299 224.836,75.0299 224.5,74C 224.989,72.8615 225.322,71.6948 225.5,70.5C 225.5,69.1667 225.5,67.8333 225.5,66.5C 225.5,65.8333 225.5,65.1667 225.5,64.5 Z"/></g>
<g><path style="opacity:1" fill="#7858c8" d="M 14.5,66.5 C 15.7501,68.8229 17.0834,71.1563 18.5,73.5C 18.1667,73.5 17.8333,73.5 17.5,73.5C 15.64,72.9285 13.9733,72.9285 12.5,73.5C 12.5,72.8333 12.5,72.1667 12.5,71.5C 13.1667,69.8333 13.8333,68.1667 14.5,66.5 Z"/></g>
<g><path style="opacity:0.725" fill="#6258ad" d="M 33.5,69.5 C 35.5452,71.9844 38.2118,72.9844 41.5,72.5C 41.5,72.8333 41.5,73.1667 41.5,73.5C 41.1667,73.5 40.8333,73.5 40.5,73.5C 37.812,73.8342 35.4786,73.1675 33.5,71.5C 33.5,70.8333 33.5,70.1667 33.5,69.5 Z"/></g>
<g><path style="opacity:1" fill="#6f5bb3" d="M 47.5,63.5 C 47.552,65.9029 47.2186,68.2362 46.5,70.5C 45.2209,71.968 43.5542,72.6347 41.5,72.5C 44.7555,70.3183 46.7555,67.3183 47.5,63.5 Z"/></g>
<g><path style="opacity:1" fill="#7756cc" d="M 49.5,69.5 C 49.5,70.8333 49.5,72.1667 49.5,73.5C 47.5,73.5 46.5,72.5 46.5,70.5C 47.391,69.8902 48.391,69.5569 49.5,69.5 Z"/></g>
<g><path style="opacity:1" fill="#7b57ca" d="M 76.5,69.5 C 77.1667,69.5 77.8333,69.5 78.5,69.5C 78.5,71.1667 78.5,72.8333 78.5,74.5C 77.5,74.5 76.5,74.5 75.5,74.5C 75.6287,72.7839 75.962,71.1172 76.5,69.5 Z"/></g>
<g><path style="opacity:1" fill="#725db3" d="M 92.5,67.5 C 92.5,68.5 92.5,69.5 92.5,70.5C 92.5,70.8333 92.5,71.1667 92.5,71.5C 92.4142,72.4959 92.7476,73.3292 93.5,74C 96.146,74.4974 98.8127,74.6641 101.5,74.5C 102.605,73.3995 103.938,72.7329 105.5,72.5C 103.146,75.46 99.9796,76.7934 96,76.5C 92.8318,76.8942 90.3318,75.8942 88.5,73.5C 88.5,73.1667 88.5,72.8333 88.5,72.5C 90.1788,72.7148 91.1788,72.0481 91.5,70.5C 91.2627,69.209 91.596,68.209 92.5,67.5 Z"/></g>
<g><path style="opacity:0.996" fill="#6f60bb" d="M 99.5,69.5 C 99.5,70.1667 99.5,70.8333 99.5,71.5C 98.828,72.2674 97.9947,72.9341 97,73.5C 95.8904,71.9632 94.3904,71.2965 92.5,71.5C 92.5,71.1667 92.5,70.8333 92.5,70.5C 93.1667,70.5 93.8333,70.5 94.5,70.5C 96.2915,70.634 97.9582,70.3007 99.5,69.5 Z"/></g>
<g><path style="opacity:1" fill="#7363ad" d="M 107.5,71.5 C 107.833,71.5 108.167,71.5 108.5,71.5C 109.167,71.8333 109.833,72.1667 110.5,72.5C 111.514,73.6737 112.847,74.3404 114.5,74.5C 116.948,75.4731 119.615,75.8064 122.5,75.5C 119.36,76.6408 116.027,76.8075 112.5,76C 110.014,75.3444 108.347,73.8444 107.5,71.5 Z"/></g>
<g><path style="opacity:1" fill="#785ec6" d="M 121.5,68.5 C 121.833,68.5 122.167,68.5 122.5,68.5C 122.5,69.1667 122.833,69.5 123.5,69.5C 123.821,71.0481 124.821,71.7148 126.5,71.5C 126.5,71.8333 126.5,72.1667 126.5,72.5C 124.938,72.7329 123.605,73.3995 122.5,74.5C 121.198,72.9724 119.531,71.9724 117.5,71.5C 118.833,71.5 120.167,71.5 121.5,71.5C 121.5,70.5 121.5,69.5 121.5,68.5 Z"/></g>
<g><path style="opacity:1" fill="#7e55d2" d="M 130.5,69.5 C 131.167,69.5 131.833,69.5 132.5,69.5C 132.833,69.5 133.167,69.5 133.5,69.5C 133.5,69.8333 133.5,70.1667 133.5,70.5C 133.5,71.5 133.5,72.5 133.5,73.5C 132.5,73.5 131.5,73.5 130.5,73.5C 130.5,72.1667 130.5,70.8333 130.5,69.5 Z"/></g>
<g><path style="opacity:1" fill="#7c54ce" d="M 154.5,67.5 C 155.026,69.2303 156.026,70.5637 157.5,71.5C 157.5,72.5 157.5,73.5 157.5,74.5C 156.395,73.3995 155.062,72.7329 153.5,72.5C 153.322,71.3052 152.989,70.1385 152.5,69C 152.836,67.9701 153.503,67.4701 154.5,67.5 Z"/></g>
<g><path style="opacity:1" fill="#765bc5" d="M 162.5,74.5 C 162.443,73.391 162.11,72.391 161.5,71.5C 163.315,70.3702 165.315,69.7036 167.5,69.5C 167.5,72.8333 165.833,74.5 162.5,74.5 Z"/></g>
<g><path style="opacity:1" fill="#7a56cd" d="M 180.5,71.5 C 180.833,71.5 181.167,71.5 181.5,71.5C 183.137,73.1237 182.803,74.1237 180.5,74.5C 179.151,74.1543 177.817,73.821 176.5,73.5C 175.833,73.5 175.5,73.1667 175.5,72.5C 176.748,70.31 178.414,69.9766 180.5,71.5 Z"/></g>
<g><path style="opacity:1" fill="#69c1c5" d="M 204.5,57.5 C 204.833,57.5 205.167,57.5 205.5,57.5C 205.5,58.8333 205.5,60.1667 205.5,61.5C 205.5,65.1667 205.5,68.8333 205.5,72.5C 205.5,73.5 205.5,74.5 205.5,75.5C 203.5,75.1667 201.5,74.8333 199.5,74.5C 199.795,72.2646 199.461,70.2646 198.5,68.5C 198.5,67.5 198.5,66.5 198.5,65.5C 199.5,65.5 200.5,65.5 201.5,65.5C 200.766,66.7079 200.433,68.0413 200.5,69.5C 201.542,70.7911 202.708,70.7911 204,69.5C 204.499,65.5138 204.666,61.5138 204.5,57.5 Z"/></g>
<g><path style="opacity:1" fill="#60c9bf" d="M 201.5,65.5 C 202.167,65.5 202.833,65.5 203.5,65.5C 203.912,67.9726 202.912,69.3059 200.5,69.5C 200.433,68.0413 200.766,66.7079 201.5,65.5 Z"/></g>
<g><path style="opacity:1" fill="#65c4c3" d="M 225.5,70.5 C 225.322,71.6948 224.989,72.8615 224.5,74C 224.836,75.0299 225.503,75.5299 226.5,75.5C 225.167,76.8333 223.833,76.8333 222.5,75.5C 222.5,74.1667 222.5,72.8333 222.5,71.5C 223.391,70.8902 224.391,70.5569 225.5,70.5 Z"/></g>
<g><path style="opacity:1" fill="#795cc7" d="M 46.5,70.5 C 46.5,72.5 47.5,73.5 49.5,73.5C 49.5,74.1667 49.5,74.8333 49.5,75.5C 46.8952,75.6206 44.8952,76.6206 43.5,78.5C 43.1667,78.5 42.8333,78.5 42.5,78.5C 42.5,77.5 42.5,76.5 42.5,75.5C 43.675,75.719 44.675,75.3857 45.5,74.5C 44.3112,73.5713 42.9778,73.238 41.5,73.5C 41.5,73.1667 41.5,72.8333 41.5,72.5C 43.5542,72.6347 45.2209,71.968 46.5,70.5 Z"/></g>
<g><path style="opacity:1" fill="#7a57cc" d="M 115.5,71.5 C 116.167,71.5 116.833,71.5 117.5,71.5C 119.531,71.9724 121.198,72.9724 122.5,74.5C 119.833,74.5 117.167,74.5 114.5,74.5C 112.847,74.3404 111.514,73.6737 110.5,72.5C 111.919,71.5489 113.585,71.2155 115.5,71.5 Z"/></g>
<g><path style="opacity:0.361" fill="#776bbc" d="M 135.5,66.5 C 135.5,69.5 135.5,72.5 135.5,75.5C 133.265,75.7947 131.265,75.4614 129.5,74.5C 131.167,74.5 132.833,74.5 134.5,74.5C 134.5,73.1667 134.5,71.8333 134.5,70.5C 134.232,68.901 134.566,67.5676 135.5,66.5 Z"/></g>
<g><path style="opacity:1" fill="#7c5dc4" d="M 191.5,70.5 C 191.5,71.1667 191.5,71.8333 191.5,72.5C 191.167,73.5 190.5,74.1667 189.5,74.5C 185.821,74.7244 182.154,75.0578 178.5,75.5C 178.167,75.5 177.833,75.5 177.5,75.5C 177.167,74.8333 176.833,74.1667 176.5,73.5C 177.817,73.821 179.151,74.1543 180.5,74.5C 182.803,74.1237 183.137,73.1237 181.5,71.5C 183.167,71.5 184.833,71.5 186.5,71.5C 186.821,73.0481 187.821,73.7148 189.5,73.5C 189.285,71.8212 189.952,70.8212 191.5,70.5 Z"/></g>
<g><path style="opacity:1" fill="#785ac8" d="M 33.5,71.5 C 35.4786,73.1675 37.812,73.8342 40.5,73.5C 40.5,74.1667 40.1667,74.5 39.5,74.5C 38.1266,74.3433 36.7932,74.51 35.5,75C 36.2524,75.6708 36.5858,76.5041 36.5,77.5C 34.4352,77.4828 32.4352,77.1495 30.5,76.5C 30.4431,75.391 30.1098,74.391 29.5,73.5C 31.8722,75.1478 33.2056,74.4811 33.5,71.5 Z"/></g>
<g><path style="opacity:1" fill="#7b55ca" d="M 92.5,71.5 C 94.3904,71.2965 95.8904,71.9632 97,73.5C 97.9947,72.9341 98.828,72.2674 99.5,71.5C 101.048,71.8212 101.715,72.8212 101.5,74.5C 98.8127,74.6641 96.146,74.4974 93.5,74C 92.7476,73.3292 92.4142,72.4959 92.5,71.5 Z"/></g>
<g><path style="opacity:1" fill="#7761c8" d="M 145.5,68.5 C 146.906,68.9731 147.573,69.9731 147.5,71.5C 147.5,72.5 147.5,73.5 147.5,74.5C 145.585,74.7845 143.919,74.4511 142.5,73.5C 143.5,73.5 144.5,73.5 145.5,73.5C 145.5,71.8333 145.5,70.1667 145.5,68.5 Z"/></g>
<g><path style="opacity:1" fill="#7a59cd" d="M 157.5,71.5 C 158.833,71.5 160.167,71.5 161.5,71.5C 162.11,72.391 162.443,73.391 162.5,74.5C 160.833,74.5 159.167,74.5 157.5,74.5C 157.5,73.5 157.5,72.5 157.5,71.5 Z"/></g>
<g><path style="opacity:1" fill="#66ccce" d="M 212.5,70.5 C 212.5,72.1667 212.5,73.8333 212.5,75.5C 208.814,75.87 207.814,74.5367 209.5,71.5C 210.391,70.8902 211.391,70.5569 212.5,70.5 Z"/></g>
<g><path style="opacity:0.933" fill="#7164c0" d="M 19.5,70.5 C 21.1667,71.8333 22.8333,73.1667 24.5,74.5C 24.5,75.1667 24.5,75.8333 24.5,76.5C 23.1667,75.8333 21.8333,75.1667 20.5,74.5C 19.8333,74.5 19.5,74.1667 19.5,73.5C 19.5,72.5 19.5,71.5 19.5,70.5 Z"/></g>
<g><path style="opacity:1" fill="#7b56cb" d="M 40.5,73.5 C 40.8333,73.5 41.1667,73.5 41.5,73.5C 42.9778,73.238 44.3112,73.5713 45.5,74.5C 44.675,75.3857 43.675,75.719 42.5,75.5C 41.8333,75.5 41.1667,75.5 40.5,75.5C 39.8333,75.5 39.5,75.1667 39.5,74.5C 40.1667,74.5 40.5,74.1667 40.5,73.5 Z"/></g>
<g><path style="opacity:1" fill="#7765bb" d="M 126.5,72.5 C 125.965,74.4456 124.632,75.4456 122.5,75.5C 119.615,75.8064 116.948,75.4731 114.5,74.5C 117.167,74.5 119.833,74.5 122.5,74.5C 123.605,73.3995 124.938,72.7329 126.5,72.5 Z"/></g>
<g><path style="opacity:1" fill="#7366b1" d="M 139.5,71.5 C 139.833,71.5 140.167,71.5 140.5,71.5C 141.167,72.1667 141.833,72.8333 142.5,73.5C 143.919,74.4511 145.585,74.7845 147.5,74.5C 147.5,73.5 147.5,72.5 147.5,71.5C 148.479,72.7653 149.479,74.0986 150.5,75.5C 145.349,77.5636 141.683,76.2303 139.5,71.5 Z"/></g>
<g><path style="opacity:1" fill="#7b5ec1" d="M 153.5,72.5 C 155.062,72.7329 156.395,73.3995 157.5,74.5C 159.167,74.5 160.833,74.5 162.5,74.5C 160.393,75.4682 158.059,75.8016 155.5,75.5C 154.833,74.5 154.167,73.5 153.5,72.5 Z"/></g>
<g><path style="opacity:0.263" fill="#73689e" d="M 128.5,69.5 C 128.833,69.5 129.167,69.5 129.5,69.5C 129.5,71.1667 129.5,72.8333 129.5,74.5C 131.265,75.4614 133.265,75.7947 135.5,75.5C 133.393,76.4682 131.059,76.8016 128.5,76.5C 128.784,74.5853 128.451,72.9187 127.5,71.5C 127.833,70.8333 128.167,70.1667 128.5,69.5 Z"/></g>
<g><path style="opacity:0.6" fill="#7469a8" d="M 189.5,74.5 C 185.956,76.5691 182.29,76.9024 178.5,75.5C 182.154,75.0578 185.821,74.7244 189.5,74.5 Z"/></g>
<g><path style="opacity:0.263" fill="#85c8cd" d="M 198.5,68.5 C 199.461,70.2646 199.795,72.2646 199.5,74.5C 201.5,74.8333 203.5,75.1667 205.5,75.5C 203.393,76.4682 201.059,76.8016 198.5,76.5C 198.5,73.8333 198.5,71.1667 198.5,68.5 Z"/></g>
<g><path style="opacity:1" fill="#7659c6" d="M 17.5,73.5 C 17.5,74.8333 17.5,76.1667 17.5,77.5C 16.1266,77.3433 14.7932,77.51 13.5,78C 14.0944,78.4643 14.7611,78.631 15.5,78.5C 15.5,78.8333 15.5,79.1667 15.5,79.5C 13.8333,79.5 12.1667,79.5 10.5,79.5C 10.2322,77.901 10.5655,76.5676 11.5,75.5C 12.3382,75.1583 12.6716,74.4916 12.5,73.5C 13.9733,72.9285 15.64,72.9285 17.5,73.5 Z"/></g>
<g><path style="opacity:1" fill="#7b58cc" d="M 17.5,73.5 C 17.8333,73.5 18.1667,73.5 18.5,73.5C 18.8333,73.5 19.1667,73.5 19.5,73.5C 19.5,74.1667 19.8333,74.5 20.5,74.5C 20.5,75.8333 20.5,77.1667 20.5,78.5C 18.8333,78.5 17.1667,78.5 15.5,78.5C 14.7611,78.631 14.0944,78.4643 13.5,78C 14.7932,77.51 16.1266,77.3433 17.5,77.5C 17.5,76.1667 17.5,74.8333 17.5,73.5 Z"/></g>
<g><path style="opacity:1" fill="#7855c7" d="M 39.5,74.5 C 39.5,75.1667 39.8333,75.5 40.5,75.5C 39.8333,76.1667 39.1667,76.8333 38.5,77.5C 37.8333,77.5 37.1667,77.5 36.5,77.5C 36.5858,76.5041 36.2524,75.6708 35.5,75C 36.7932,74.51 38.1266,74.3433 39.5,74.5 Z"/></g>
<g><path style="opacity:0.992" fill="#7463b5" d="M 49.5,75.5 C 47.8816,77.316 45.8816,78.6493 43.5,79.5C 43.5,79.1667 43.5,78.8333 43.5,78.5C 44.8952,76.6206 46.8952,75.6206 49.5,75.5 Z"/></g>
<g><path style="opacity:1" fill="#745ac9" d="M 20.5,74.5 C 21.8333,75.1667 23.1667,75.8333 24.5,76.5C 24.5,77.8333 24.5,79.1667 24.5,80.5C 22.8007,80.4729 21.4674,79.8062 20.5,78.5C 20.5,77.1667 20.5,75.8333 20.5,74.5 Z"/></g>
<g><path style="opacity:0.678" fill="#655ca7" d="M 24.5,74.5 C 25.4731,76.9479 25.8064,79.6146 25.5,82.5C 24.209,82.7373 23.209,82.404 22.5,81.5C 23.4916,81.6716 24.1583,81.3382 24.5,80.5C 24.5,79.1667 24.5,77.8333 24.5,76.5C 24.5,75.8333 24.5,75.1667 24.5,74.5 Z"/></g>
<g><path style="opacity:1" fill="#705fb6" d="M 30.5,76.5 C 32.4352,77.1495 34.4352,77.4828 36.5,77.5C 37.1667,77.5 37.8333,77.5 38.5,77.5C 39.5676,78.4345 40.901,78.7678 42.5,78.5C 42.8333,78.5 43.1667,78.5 43.5,78.5C 43.5,78.8333 43.5,79.1667 43.5,79.5C 38.4558,81.3545 34.1225,80.3545 30.5,76.5 Z"/></g>
<g><path style="opacity:1" fill="#7b56c6" d="M 40.5,75.5 C 41.1667,75.5 41.8333,75.5 42.5,75.5C 42.5,76.5 42.5,77.5 42.5,78.5C 40.901,78.7678 39.5676,78.4345 38.5,77.5C 39.1667,76.8333 39.8333,76.1667 40.5,75.5 Z"/></g>
<g><path style="opacity:1" fill="#6761b4" d="M 11.5,72.5 C 11.5,73.5 11.5,74.5 11.5,75.5C 10.5655,76.5676 10.2322,77.901 10.5,79.5C 12.1667,79.5 13.8333,79.5 15.5,79.5C 15.8333,79.5 16.1667,79.5 16.5,79.5C 13.7846,81.0719 10.7846,82.0719 7.5,82.5C 8.26349,78.8632 9.59682,75.5299 11.5,72.5 Z"/></g>
<g><path style="opacity:1" fill="#7461b5" d="M 15.5,79.5 C 15.5,79.1667 15.5,78.8333 15.5,78.5C 17.1667,78.5 18.8333,78.5 20.5,78.5C 21.4674,79.8062 22.8007,80.4729 24.5,80.5C 24.1583,81.3382 23.4916,81.6716 22.5,81.5C 20.5,80.8333 18.5,80.1667 16.5,79.5C 16.1667,79.5 15.8333,79.5 15.5,79.5 Z"/></g>
</svg>
