<svg width="19" height="19" viewBox="0 0 19 19" fill="none" xmlns="http://www.w3.org/2000/svg">
<mask id="mask0_6_1548" style="mask-type:luminance" maskUnits="userSpaceOnUse" x="0" y="0" width="19" height="19">
<path d="M9.33334 17.6667C10.4279 17.668 11.5119 17.4531 12.5231 17.0342C13.5344 16.6153 14.4529 16.0008 15.2258 15.2258C16.0008 14.4529 16.6153 13.5344 17.0342 12.5231C17.4531 11.5119 17.668 10.4279 17.6667 9.33334C17.668 8.23879 17.4531 7.15477 17.0342 6.14354C16.6153 5.13232 16.0008 4.21383 15.2258 3.44084C14.4529 2.66591 13.5344 2.05135 12.5231 1.63247C11.5119 1.21359 10.4279 0.998657 9.33334 1.00001C8.23879 0.998657 7.15477 1.21359 6.14354 1.63247C5.13232 2.05135 4.21383 2.66591 3.44084 3.44084C2.66591 4.21383 2.05135 5.13232 1.63247 6.14354C1.21359 7.15477 0.998657 8.23879 1.00001 9.33334C0.998657 10.4279 1.21359 11.5119 1.63247 12.5231C2.05135 13.5344 2.66591 14.4529 3.44084 15.2258C4.21383 16.0008 5.13232 16.6153 6.14354 17.0342C7.15477 17.4531 8.23879 17.668 9.33334 17.6667Z" fill="white" stroke="white" stroke-width="2" stroke-linejoin="round"/>
<path d="M6 9.33334L8.5 11.8333L13.5 6.83334" stroke="black" stroke-width="2" stroke-linecap="round" stroke-linejoin="round"/>
</mask>
<g mask="url(#mask0_6_1548)">
<path d="M-0.666626 -0.666656H19.3334V19.3333H-0.666626V-0.666656Z" fill="#08B85C"/>
</g>
</svg>
