<svg width="35" height="35" viewBox="0 0 35 35" fill="none" xmlns="http://www.w3.org/2000/svg">
<rect width="35" height="35" rx="17.5" fill="#FCFCFC"/>
<mask id="mask0_230_1465" style="mask-type:luminance" maskUnits="userSpaceOnUse" x="8" y="6" width="19" height="18">
<path fill-rule="evenodd" clip-rule="evenodd" d="M8.3335 6.80555H26.3166V23.6717H8.3335V6.80555Z" fill="white"/>
</mask>
<g mask="url(#mask0_230_1465)">
<path fill-rule="evenodd" clip-rule="evenodd" d="M17.3236 8.26389C13.9257 8.26389 11.5574 10.9258 11.5574 13.3146C11.5574 15.3358 10.9964 16.2701 10.5006 17.0946C10.103 17.7567 9.78893 18.2797 9.78893 19.4162C9.95129 21.2499 11.1617 22.2133 17.3236 22.2133C23.4516 22.2133 24.6999 21.2071 24.8613 19.3531C24.8584 18.2797 24.5443 17.7567 24.1467 17.0946C23.6509 16.2701 23.0899 15.3358 23.0899 13.3146C23.0899 10.9258 20.7216 8.26389 17.3236 8.26389ZM17.3236 23.6717C12.7775 23.6717 8.66893 23.3508 8.33351 19.4785C8.33059 17.8762 8.81962 17.0615 9.25129 16.344C9.68781 15.6168 10.0991 14.9314 10.0991 13.3146C10.0991 10.1714 13.0021 6.80555 17.3236 6.80555C21.6452 6.80555 24.5482 10.1714 24.5482 13.3146C24.5482 14.9314 24.9595 15.6168 25.396 16.344C25.8277 17.0615 26.3167 17.8762 26.3167 19.4162C25.9774 23.3508 21.8698 23.6717 17.3236 23.6717Z" fill="#7857C7"/>
</g>
<path fill-rule="evenodd" clip-rule="evenodd" d="M17.2762 27.7083H17.2742C16.1844 27.7074 15.1528 27.2271 14.3702 26.355C14.1009 26.0565 14.1252 25.5947 14.4246 25.3264C14.7241 25.0561 15.1849 25.0804 15.4542 25.3808C15.9578 25.9418 16.6044 26.25 17.2752 26.25H17.2762C17.9499 26.25 18.5994 25.9418 19.1039 25.3799C19.3742 25.0814 19.835 25.0571 20.1335 25.3264C20.433 25.5957 20.4573 26.0575 20.188 26.356C19.4024 27.2281 18.3689 27.7083 17.2762 27.7083Z" fill="#7857C7"/>
</svg>
