<svg width="235" height="120" viewBox="0 0 235 120" fill="none" xmlns="http://www.w3.org/2000/svg">
<g transform="scale(1.1) translate(-6 -8)">
<path d="M55 64c0 14.359-11.641 26-26 26S3 78.359 3 64 14.641 38 29 38s26 11.641 26 26Z" fill="#7b58ca"/>
<path d="M18 44.5c3.1-1.8 6.9-2.8 11-2.8 12.15 0 22 9.85 22 22 0 4.1-1.2 7.9-3 11l-9-9.7c.6-1 .9-2.2.9-3.4 0-3.7-2.5-6.9-5.9-7.8v-9.3c0-.7-.6-1.3-1.3-1.3H23.6c-.7 0-1.3.6-1.3 1.3v9.3c-3.4.9-5.9 4.1-5.9 7.8 0 4.4 3.6 8 8 8h.5L34 90c-1.6.3-3.3.5-5 .5-12.15 0-22-9.85-22-22 0-8 4.34-15.03 11-19Z" fill="white"/>
<path d="M48.5 84c-4.45 4.4-10.53 7-17 7-1.7 0-3.4-.2-5-.5l-4.6-9.1c1.7 0 3.3-.5 4.6-1.4L33 87c.7.7 1.7.7 2.4 0l13.1-13.5c.6-.6.6-1.6 0-2.2l-5.7-5.9c0-.2.1-.4.1-.7 0-1.1-.3-2.1-.9-3l9 9.7c.3 1.1.5 2.3.5 3.6 0 3.6-1.4 6.9-3.5 9.8Z" fill="#65c7c3"/>
<circle cx="29.5" cy="64" r="4.5" fill="#7b58ca"/>
</g>
<text x="70" y="78" font-family="Inter, Arial, sans-serif" font-size="40" font-weight="800" fill="#7b58ca">Tasked<tspan fill="#65c7c3">in</tspan></text>
</svg>

